<svg xmlns="http://www.w3.org/2000/svg" viewBox="0 0 181.82 54.71"><defs><style>.cls-1{opacity:0.5;}.cls-2{fill:#4f4f4f;}.cls-3{fill:#727272;}</style></defs><g id="Layer_2" data-name="Layer 2"><g id="Layer_1-2" data-name="Layer 1"><g class="cls-1"><path class="cls-2" d="M26.71,26.6a11,11,0,0,0-.7-1A7.12,7.12,0,0,1,24.5,21c0-3.25,0-6.5,0-9.75a28.22,28.22,0,0,0-.19-3.9,7.48,7.48,0,0,0-2.95-5.1,11.13,11.13,0,0,0-4.81-2C16,.18,15.38.1,14.8,0H12c0,.1-.15.07-.22.07A16.42,16.42,0,0,0,8.13.79,9.8,9.8,0,0,0,1,8.51a1,1,0,0,0,.86,1.27c1.76.21,3.53.38,5.29.58a.87.87,0,0,0,.8-.36,1.6,1.6,0,0,0,.33-.74,3.79,3.79,0,0,1,.66-1.51A4.6,4.6,0,0,1,13.43,6a3.21,3.21,0,0,1,3,2.76A16.09,16.09,0,0,1,16.6,12c0,.21-.15.21-.29.23-1.52.17-3,.31-4.55.51a20.58,20.58,0,0,0-5.59,1.35A9.39,9.39,0,0,0,.54,20a11,11,0,0,0,0,6.74A7.22,7.22,0,0,0,4,31.06a8.32,8.32,0,0,0,3.58,1,12.62,12.62,0,0,0,5.68-.74,12.7,12.7,0,0,0,4-2.83c.48-.47.49-.48.87.1a12.85,12.85,0,0,0,2.69,3.05,1.13,1.13,0,0,0,1.29.12,2.87,2.87,0,0,0,.46-.34l3.91-3.38A1,1,0,0,0,26.71,26.6ZM16.6,18.71a11.35,11.35,0,0,1-.52,4.05,6.19,6.19,0,0,1-1.94,2.83,3.89,3.89,0,0,1-3.06.84,2.91,2.91,0,0,1-2.42-1.9,5.46,5.46,0,0,1,.64-5.48,5.57,5.57,0,0,1,3.21-1.88,16.23,16.23,0,0,1,3.8-.43c.25,0,.3.08.3.3C16.6,17.6,16.6,18.16,16.6,18.71Z"/><path class="cls-2" d="M100.4,26.48c-.2-.3-.42-.6-.65-.89A7.14,7.14,0,0,1,98.25,21c0-3.26,0-6.53,0-9.79A28.86,28.86,0,0,0,98.1,7.5a7.52,7.52,0,0,0-3.55-5.65A11.92,11.92,0,0,0,90.35.29C89.72.18,89.07.1,88.44,0h-2.7a2.28,2.28,0,0,1-.82.14A14.09,14.09,0,0,0,79.14,2a9.47,9.47,0,0,0-4.4,6.53,1,1,0,0,0,.87,1.22l5.22.58a1,1,0,0,0,.94-.46,2.24,2.24,0,0,0,.28-.76,3.8,3.8,0,0,1,.84-1.66A4.66,4.66,0,0,1,87.2,6a3.33,3.33,0,0,1,3.09,3.13c.11.91,0,1.82.08,2.73,0,.27-.08.36-.35.39-1.32.12-2.63.26-4,.42a24.72,24.72,0,0,0-5.57,1.2,9.53,9.53,0,0,0-6,5.66,10.73,10.73,0,0,0-.08,7.49,7.13,7.13,0,0,0,4.32,4.47,10.44,10.44,0,0,0,4.18.61,10.68,10.68,0,0,0,5.3-1.37,15.58,15.58,0,0,0,3-2.43c.22-.23.33-.26.52.05a12.92,12.92,0,0,0,2.84,3.28,1.15,1.15,0,0,0,1.32.12,3.19,3.19,0,0,0,.43-.32l3.88-3.37A1.06,1.06,0,0,0,100.4,26.48Zm-10-7.59a11.11,11.11,0,0,1-.5,3.83,6.08,6.08,0,0,1-2.15,3,3.87,3.87,0,0,1-2.72.72,3,3,0,0,1-2.63-2,5.61,5.61,0,0,1,.24-4.67A5.09,5.09,0,0,1,86,17.25a15.61,15.61,0,0,1,4.14-.51c.21,0,.26.07.26.26C90.36,17.54,90.36,18.09,90.36,18.89Z"/><path class="cls-2" d="M181.82,31a1.37,1.37,0,0,1-1.39.75c-1.68,0-3.36,0-5.05,0-.91,0-1.29-.38-1.29-1.29V12.79a10.44,10.44,0,0,0-.36-2.94,3,3,0,0,0-2.32-2.38A3.35,3.35,0,0,0,168,8.66a6.49,6.49,0,0,0-1.28,3,14.38,14.38,0,0,0-.27,3c0,5.24,0,10.47,0,15.71a1.22,1.22,0,0,1-1.37,1.35c-1.68,0-3.36,0-5,0-.94,0-1.31-.38-1.31-1.31q0-14.13,0-28.26c0-.89.37-1.28,1.27-1.28q2.42,0,4.83,0c.83,0,1.2.38,1.2,1.22,0,1.2,0,2.41,0,3.61,0,.12-.06.26.06.37a1.2,1.2,0,0,0,.26-.5,12.26,12.26,0,0,1,1.41-2.49A6.56,6.56,0,0,1,172.16.41a8.7,8.7,0,0,1,5.23.63,7.17,7.17,0,0,1,4,5.4,19.64,19.64,0,0,1,.36,3c0,.09,0,.2.07.26v.5a3.57,3.57,0,0,0,0,1.13Z"/><path class="cls-2" d="M181.82,11.28a1.89,1.89,0,0,1,0-1.13Z"/><path class="cls-2" d="M53.19,5.6a8.21,8.21,0,0,1,2.07-3.16A8.08,8.08,0,0,1,61.77.33a7.72,7.72,0,0,1,5.28,2.59,7.39,7.39,0,0,1,1.72,4.15,23.25,23.25,0,0,1,.14,3q0,10.15,0,20.32a2,2,0,0,1-.06.64,1.05,1.05,0,0,1-1,.69c-1.83,0-3.67,0-5.5,0a1.05,1.05,0,0,1-1.1-1.2q0-8.8,0-17.63A13.07,13.07,0,0,0,61,9.84a2.8,2.8,0,0,0-2.8-2.32A3.84,3.84,0,0,0,54,11.14a21.14,21.14,0,0,0-.2,3.18v16.1c0,.95-.37,1.32-1.3,1.32H47.35c-.87,0-1.25-.39-1.25-1.26q0-8.44,0-16.88a15.05,15.05,0,0,0-.28-3.42c0-.13-.06-.26-.09-.38A3.11,3.11,0,0,0,42,7.48a3.18,3.18,0,0,0-2.67,2.1,10.58,10.58,0,0,0-.62,3.61c0,.4,0,.81,0,1.21V30.47c0,.88-.39,1.27-1.28,1.27H32.27A1.09,1.09,0,0,1,31,30.48V2.18c0-.89.38-1.29,1.27-1.29q2.43,0,4.86,0a1.09,1.09,0,0,1,1.23,1.25V5.6c.18-.06.18-.2.23-.31a8,8,0,0,1,3-3.87A8.06,8.06,0,0,1,46.77.32a7,7,0,0,1,5.85,4.15C52.81,4.83,53,5.19,53.19,5.6Z"/><path class="cls-2" d="M153.19,8.76a13.11,13.11,0,0,0-3.59-5.53A11.33,11.33,0,0,0,142.29.29,11.61,11.61,0,0,0,130.77,7.4,20.48,20.48,0,0,0,129,16.08a21.8,21.8,0,0,0,1.5,8.41,13.32,13.32,0,0,0,3.66,5.2,11,11,0,0,0,6.53,2.61,11.55,11.55,0,0,0,7.61-2,13.33,13.33,0,0,0,5.12-7A22,22,0,0,0,153.19,8.76ZM146.1,19.64a12.35,12.35,0,0,1-.93,4.27,3.81,3.81,0,0,1-2.52,2.35,3.3,3.3,0,0,1-3.84-1.49A9.71,9.71,0,0,1,137.58,21c-.09-.58-.15-1.17-.2-1.76-.07-1-.11-2-.09-2.95a29.64,29.64,0,0,1,.29-5.43,8.21,8.21,0,0,1,1-3,3.77,3.77,0,0,1,5.79-.74,4.36,4.36,0,0,1,.93,1.65,17.29,17.29,0,0,1,.77,4.38A44.38,44.38,0,0,1,146.1,19.64Z"/><path class="cls-3" d="M74,54.69a67.67,67.67,0,0,1-18.41-2.24A69.83,69.83,0,0,1,31.71,41.17,69.79,69.79,0,0,1,26.2,36.7c-.59-.52-.75-1-.44-1.43s.83-.43,1.5,0a90.47,90.47,0,0,0,10.83,5.31,96.09,96.09,0,0,0,19.44,5.69A94.11,94.11,0,0,0,68,47.54c2.62.19,5.25.3,7.87.26a93.92,93.92,0,0,0,13-1.1,95.05,95.05,0,0,0,22.25-6.26,2.29,2.29,0,0,1,1.34-.22,1.32,1.32,0,0,1,.83,2.19,3.05,3.05,0,0,1-.66.58,57.84,57.84,0,0,1-14.4,7.43A73,73,0,0,1,84.06,54,56.25,56.25,0,0,1,74,54.69Z"/><path class="cls-2" d="M115.78,7h-9.41c-.89,0-1.25-.37-1.26-1.25,0-1.26,0-2.53,0-3.79A1,1,0,0,1,106.26.81q9.15,0,18.29,0A1.05,1.05,0,0,1,125.72,2c0,.92,0,1.84,0,2.76a3.2,3.2,0,0,1-.62,2.06L122.89,10q-3.92,5.58-7.82,11.15l-.31.47h.53A20.81,20.81,0,0,1,124,23.27c.42.18.83.4,1.24.61a1.87,1.87,0,0,1,1.06,1.76c0,1.4,0,2.81,0,4.22a1,1,0,0,1-1.54.92,21.1,21.1,0,0,0-19.2,0,1,1,0,0,1-1.46-.79c0-1.8-.1-3.6.06-5.39a3.86,3.86,0,0,1,.73-1.89l10.68-15.3A1.1,1.1,0,0,0,115.78,7Z"/><path class="cls-3" d="M112.36,36.8a63.72,63.72,0,0,0-7.17.55,2.42,2.42,0,0,1-.71,0,.51.51,0,0,1-.42-.76,1.5,1.5,0,0,1,.63-.69,16,16,0,0,1,6.19-2.46,22.25,22.25,0,0,1,8.49,0,9.4,9.4,0,0,1,1.57.45,1.58,1.58,0,0,1,1.09,1.5,12.88,12.88,0,0,1-.29,3.87,22,22,0,0,1-3.56,8.54,14.39,14.39,0,0,1-2.4,2.65,1.56,1.56,0,0,1-.78.39.53.53,0,0,1-.66-.58,1.8,1.8,0,0,1,.18-.64,65.84,65.84,0,0,0,2.45-7,13.17,13.17,0,0,0,.58-3.41,1.82,1.82,0,0,0-1.66-2.14A13.93,13.93,0,0,0,112.36,36.8Z"/></g></g></g></svg>