<svg xmlns="http://www.w3.org/2000/svg" viewBox="0 0 29.63 29.63"><defs><style>.cls-1{fill:#222221;}</style></defs><g id="Layer_2" data-name="Layer 2"><g id="Layer_1-2" data-name="Layer 1"><path class="cls-1" d="M14.82,29.63A14.82,14.82,0,1,1,29.63,14.82,14.84,14.84,0,0,1,14.82,29.63Zm0-28.51a13.7,13.7,0,1,0,13.69,13.7A13.72,13.72,0,0,0,14.82,1.12Z"/><path class="cls-1" d="M16.6,14.44H10.84v1.65h3.88A3.81,3.81,0,0,1,11,19.33,4.52,4.52,0,1,1,14,11.5l1.27-1.1A6.19,6.19,0,1,0,11,21a5.62,5.62,0,0,0,5.66-5.93Z"/><polygon class="cls-1" points="24.87 14.51 22.5 14.51 22.5 12.13 20.98 12.13 20.98 14.51 18.6 14.51 18.6 16.03 20.98 16.03 20.98 18.41 22.5 18.41 22.5 16.03 24.87 16.03 24.87 14.51"/></g></g></svg>