<svg xmlns="http://www.w3.org/2000/svg" viewBox="0 0 234.01 62.96"><defs><style>.cls-1{opacity:0.5;}.cls-2{fill:#4f4f4f;}.cls-3{fill:#727272;}.cls-4{fill:#a0a0a0;}.cls-5{fill:#9f9f9f;}.cls-6{fill:#989898;}.cls-7{fill:#9d9d9d;}.cls-8{fill:#9a9a9a;}.cls-9{fill:#929292;}.cls-10{fill:#999;}.cls-11{fill:#959595;}.cls-12{fill:#8e8e8e;}.cls-13{fill:#9c9c9c;}.cls-14{fill:#898989;}.cls-15{fill:#848484;}.cls-16{fill:#9e9e9e;}</style></defs><g id="Layer_2" data-name="Layer 2"><g id="Layer_1-2" data-name="Layer 1"><g class="cls-1"><path class="cls-2" d="M219.31,44.46c.47,3.47-1.26,5.76-4.74,6.17a15.29,15.29,0,0,1-3.64,0,15.23,15.23,0,0,0-2.13-.13q-74.36,0-148.73,0a6.83,6.83,0,0,1-5.42-2.45c-2.23-2.5-4.49-5-6.75-7.46C45.27,37.73,42.61,34.89,40,32a1.93,1.93,0,0,0-1.58-.68c-2.61,0-5.22,0-7.82,0a3.33,3.33,0,0,0-.95.07,6.08,6.08,0,0,1-4.18-.4A18.11,18.11,0,0,1,16,22a7.08,7.08,0,0,1-.72-3.74,3.49,3.49,0,0,1,1.81-2.87,7.32,7.32,0,0,1,3.16-.89c.57,0,1.14,0,1.72,0H173.61a9.1,9.1,0,0,0,1.28,0,4.7,4.7,0,0,1,4,1.52A15.2,15.2,0,0,1,180,17.09c4.63,5.24,9.45,10.31,14.17,15.48a2.28,2.28,0,0,0,1.86.78c4.15,0,8.29,0,12.42,0a7.88,7.88,0,0,1,5.67,2.09A14.54,14.54,0,0,1,219.31,44.46Z"/><path class="cls-3" d="M234,61.63V1.37C234-.25,234.1,0,232.63,0H1.36C-.16,0,0-.2,0,1.39V61.54C0,63.18-.2,63,1.44,63H232.7C234.11,63,234,63.18,234,61.63Zm-7.2-4.29H7.33c-1.93,0-1.74.2-1.74-1.7q0-24.22,0-48.48c0-1.71-.13-1.57,1.54-1.57h219.7c1.66,0,1.53-.16,1.53,1.59V55.77C228.36,57.47,228.5,57.34,226.81,57.34Z"/><path class="cls-4" d="M214.57,50.63a15.29,15.29,0,0,1-3.64,0,15.23,15.23,0,0,0-2.13-.13q-74.36,0-148.73,0a6.83,6.83,0,0,1-5.42-2.45c-2.23-2.5-4.49-5-6.75-7.46C45.27,37.73,42.61,34.89,40,32a1.93,1.93,0,0,0-1.58-.68c-2.61,0-5.22,0-7.82,0a3.33,3.33,0,0,0-.95.07,6.08,6.08,0,0,1-4.18-.4A18.11,18.11,0,0,1,16,22a7.08,7.08,0,0,1-.72-3.74,3.49,3.49,0,0,1,1.81-2.87,7.32,7.32,0,0,1,3.16-.89c.57,0,1.14,0,1.72,0H173.61a9.1,9.1,0,0,0,1.28,0,4.7,4.7,0,0,1,4,1.52A15.2,15.2,0,0,1,180,17.09c4.63,5.24,9.45,10.31,14.17,15.48a2.28,2.28,0,0,0,1.86.78c4.15,0,8.29,0,12.42,0a7.88,7.88,0,0,1,5.67,2.09,14.54,14.54,0,0,1,5.23,9.06C219.78,47.93,218.05,50.22,214.57,50.63Z"/><path class="cls-2" d="M214.57,50.63a15.29,15.29,0,0,1-3.64,0,15.23,15.23,0,0,0-2.13-.13q-74.36,0-148.73,0a6.83,6.83,0,0,1-5.42-2.45c-2.23-2.5-4.49-5-6.75-7.46C45.27,37.73,42.61,34.89,40,32a1.93,1.93,0,0,0-1.58-.68c-2.61,0-5.22,0-7.82,0a3.33,3.33,0,0,0-.95.07,6.08,6.08,0,0,1-4.18-.4A18.11,18.11,0,0,1,16,22a7.08,7.08,0,0,1-.72-3.74,3.49,3.49,0,0,1,1.81-2.87,7.32,7.32,0,0,1,3.16-.89c.57,0,1.14,0,1.72,0H173.61a9.1,9.1,0,0,0,1.28,0,4.7,4.7,0,0,1,4,1.52A15.2,15.2,0,0,1,180,17.09c4.63,5.24,9.45,10.31,14.17,15.48a2.28,2.28,0,0,0,1.86.78c4.15,0,8.29,0,12.42,0a7.88,7.88,0,0,1,5.67,2.09,14.54,14.54,0,0,1,5.23,9.06C219.78,47.93,218.05,50.22,214.57,50.63Z"/><path class="cls-4" d="M180.35,19.7c.32.5.87.84,1.1,1.41-.37.27-.75.12-1.08.21s-.33.15-.32.36a.33.33,0,0,0,.35.33c.5,0,1,0,1.5,0a1,1,0,0,1,1.09.78c-.33.28-.7.15-1,.17s-.85,0-1.28,0c-.28,0-.63,0-.62.41s.39.35.66.35c.89,0,1.78,0,2.67,0a1.19,1.19,0,0,1,1.26.76c-.12.34-.41.24-.64.25h-2.78c-.25,0-.5,0-.75,0s-.42.1-.4.38.17.29.37.3.5,0,.75,0c1.24,0,2.49,0,3.74,0a1.18,1.18,0,0,1,1.3.86,1.7,1.7,0,0,1-1.07.15h-4c-.25,0-.5,0-.74,0s-.36.07-.39.29.15.38.39.39.57,0,.85,0c1.68,0,3.36,0,5,0,.41,0,.87-.1,1.13.47a1.28,1.28,0,0,1-.91.16c-1.81,0-3.63,0-5.45,0-.37,0-1-.25-1,.4s.61.34,1,.34c2.21,0,4.43,0,6.64,0,.59,0,1.14.05,1.32.81a2.28,2.28,0,0,1-1.15.13c-2.28,0-4.57,0-6.85,0-.35,0-.93-.19-1,.38s.57.4.91.4c2.75,0,5.5,0,8.24,0a1.42,1.42,0,0,1,1.54.95,2.47,2.47,0,0,1-1.16.12h-9.1c-.23,0-.45.07-.43.36s.25.3.47.31.57,0,.86,0c3,0,5.92.06,8.88,0A2.65,2.65,0,0,1,193,33.66c-.34.25-.74.14-1.11.14H181.5c-.32,0-.64,0-1,0s-.36.09-.37.31.18.36.41.37.64,0,1,0c3.64,0,7.28.05,10.92,0a2.8,2.8,0,0,1,2.63,1.23c.16.23.41.39.5.75a2.35,2.35,0,0,1-1.14.12H181.29c-.32,0-.65,0-1,0a.28.28,0,0,0-.26.29.27.27,0,0,0,.22.31,9.59,9.59,0,0,0,1.07.06h14.23c.52,0,1.09-.09,1.36.65a2.15,2.15,0,0,1-1.14.13H181.36c-.32,0-.64,0-1,0a.3.3,0,0,0-.33.33c0,.21.16.31.35.32l1,0h15.52c.72,0,1.34.09,1.68.91a1.73,1.73,0,0,1-1.11.15H181.42c-.32,0-.64,0-1,0s-.42.13-.4.4a.34.34,0,0,0,.36.32c.32,0,.65,0,1,0h17.34c.62,0,1.2,0,1.45.81a2.72,2.72,0,0,1-1.28.13H180.49c-.36,0-.48.24-.55.54a1,1,0,0,1,0,1.19c0,.35.11.63.56.61.28,0,.57,0,.85,0h20.35c.55,0,1.17-.1,1.42.63-.15.31-.43.19-.66.21s-.64,0-1,0H55.27a3.08,3.08,0,0,0-.43,0,1.84,1.84,0,0,1-1.91-.88,2.45,2.45,0,0,1-.5-.76c.37-.21.77-.08,1.13-.15a.38.38,0,0,0,0-.75,3.45,3.45,0,0,0-.85,0c-1.17.18-1.86-.43-2.45-1.5a13.75,13.75,0,0,1,2.37-.09c.36,0,.72,0,1.07-.07a.28.28,0,0,0,.23-.31.31.31,0,0,0-.22-.33,3.7,3.7,0,0,0-.74-.06H50a1.29,1.29,0,0,1-1.12-.49,18.66,18.66,0,0,1-1.6-1.84c.32-.34.7-.21,1-.22h4.5c.28,0,.57,0,.85,0a.29.29,0,0,0,.27-.28.3.3,0,0,0-.31-.35c-.28,0-.57,0-.85,0-1.86,0-3.71,0-5.57,0a1.66,1.66,0,0,1-1.56-.71c-.28-.41-.73-.68-.93-1.16.35-.34.76-.2,1.14-.2,2.31,0,4.63,0,6.95,0,.39,0,1.07.2,1.09-.32,0-.7-.71-.38-1.1-.39-2.53,0-5.07-.08-7.6,0a2.65,2.65,0,0,1-2.7-1.53c.31-.26.68-.15,1-.15h9.85c.24,0,.56,0,.58-.32s-.29-.35-.53-.36-.57,0-.86,0c-3.39,0-6.78,0-10.17,0a1.39,1.39,0,0,1-1.52-1A2.63,2.63,0,0,1,42,30.4h10.7c.32,0,.64,0,1,0a.3.3,0,0,0,.27-.29.32.32,0,0,0-.25-.41,6.11,6.11,0,0,0-1,0q-6,0-12,0c-.63,0-1.21,0-1.51-.8a2,2,0,0,1,1.14-.14H53.4c.26,0,.53-.05.51-.4s-.24-.33-.47-.34H39.2a1.94,1.94,0,0,1-1-.12c-.12-.07-.24-.17-.18-.34a.27.27,0,0,1,.25-.16H52.58c.32,0,.64,0,1,0s.35-.11.36-.32a.32.32,0,0,0-.33-.35c-.31,0-.64,0-1,0-4.92,0-9.85,0-14.77,0a1.44,1.44,0,0,1-1.59-.9,1.93,1.93,0,0,1,1.11-.12h15.2c.32,0,.65,0,1,0a.32.32,0,0,0,.32-.34.35.35,0,0,0-.35-.34c-.32,0-.64,0-1,0q-8.09,0-16.17,0c-.7,0-1.36,0-1.67-.9a2.49,2.49,0,0,1,1.14-.11H52.65c.32,0,.65,0,1,0a.3.3,0,0,0,.3-.36.32.32,0,0,0-.24-.31A7.59,7.59,0,0,0,52.6,23H34.73c-.58,0-1.17,0-1.49-.6,0-.05,0-.13,0-.25a2.84,2.84,0,0,1,1.23-.1h18.2c.32,0,.64,0,1,0a.32.32,0,0,0,.31-.36.3.3,0,0,0-.27-.29,9.46,9.46,0,0,0-1.07-.06c-6.28,0-12.56,0-18.84,0a2.72,2.72,0,0,1-2.67-1.13,2.71,2.71,0,0,0-.4-.35c.27-.46.71-.21,1.06-.21q8.24,0,16.48,0H179A2.86,2.86,0,0,1,180.35,19.7Z"/><path class="cls-4" d="M30,19.07a11,11,0,0,1-1.56-1.71c.19-.33.47-.21.7-.23s.57,0,.85,0H176.27a4.56,4.56,0,0,0,.64,0,1.77,1.77,0,0,1,1.82.85,6.37,6.37,0,0,1,.76,1c-.3.31-.68.16-1,.16H31.07A2.21,2.21,0,0,1,30,19.07Z"/><path class="cls-4" d="M207,48.72a4.26,4.26,0,0,1-1.42.11l-133,0c-4.46,0-8.92,0-13.38,0a3.83,3.83,0,0,1-2.9-1.3c.17-.37.46-.24.68-.26s.57,0,.86,0H204.12a3.13,3.13,0,0,0,.53,0C205.8,47.11,206.4,47.8,207,48.72Z"/><path class="cls-4" d="M54.78,45.71a3.71,3.71,0,0,1,1.53-.13h147c.63,0,1.23,0,1.5.72-.16.31-.44.21-.67.22s-.49,0-.74,0H56.83c-.33,0-.65,0-1,0A1,1,0,0,1,54.78,45.71Z"/><path class="cls-5" d="M176.42,16.3H27.61c-.14,0-.27-.08-.35-.33.3-.26.69-.15,1-.15h13l112.75,0,21.3,0A1,1,0,0,1,176.42,16.3Z"/><path class="cls-2" d="M180.35,19.7H32.46a5.2,5.2,0,0,0-1.8.12,1.21,1.21,0,0,1,1-.33H178.57A3.28,3.28,0,0,1,180.35,19.7Z"/><path class="cls-2" d="M30,19.07c.57,0,1.14,0,1.71,0H177.78c.57,0,1.14,0,1.71,0a1.47,1.47,0,0,1-1,.27H31.91A3.81,3.81,0,0,1,30,19.07Z"/><path class="cls-5" d="M27.84,24.66a3,3,0,0,1-1.38.15c-2,0-4.06,0-6.09,0A1.43,1.43,0,0,1,19,24.17c-.31-.48-.67-.92-1-1.41s-.22-.64.34-.66,1.35,0,2,0c1.46,0,2.93,0,4.38,0a1.84,1.84,0,0,1,1.59.69A8,8,0,0,1,27.84,24.66Z"/><path class="cls-4" d="M210.94,41.1h5.22c.3,0,.57.06.69.38a7.52,7.52,0,0,1,.76,2.75c0,1.13-.54,1.56-1.63,1.3a5.54,5.54,0,0,1-1.64-.75,13.27,13.27,0,0,1-3.26-3A.62.62,0,0,1,210.94,41.1Z"/><path class="cls-5" d="M196.32,34.89a1.4,1.4,0,0,1,1-.2h9.39a.39.39,0,0,1,.42.48c0,.25-.07.49-.08.74,0,.5-.29.66-.76.66h-7.79a1.08,1.08,0,0,1-.86-.33Z"/><path class="cls-6" d="M180,43.32c0-.4,0-.79,0-1.19a2.12,2.12,0,0,0,1.35.2h18.93c.56,0,1.18-.1,1.45.65-.35.34-.8.2-1.2.2-4.35,0-8.69,0-13,0h-6.21A3.66,3.66,0,0,0,180,43.32Z"/><path class="cls-5" d="M20.48,25.8a.77.77,0,0,1,.72-.26h6.53c.39,0,.8,0,1,.38a3.93,3.93,0,0,1,.67,1.67c0,.28-.27.28-.48.29H27.14c-1.1,0-2.21,0-3.32,0a2.35,2.35,0,0,1-1.57-.52A17.41,17.41,0,0,1,20.48,25.8Z"/><path class="cls-5" d="M24.41,21.22s-.1.11-.15.11l-6.39,0a.7.7,0,0,1-.74-.62,3.11,3.11,0,0,1-.15-1,1.21,1.21,0,0,1,1.16-1.28,3.87,3.87,0,0,1,1.48.08,12.71,12.71,0,0,1,4.69,2.45A.24.24,0,0,1,24.41,21.22Z"/><path class="cls-4" d="M214,37.72h-4.65a.69.69,0,0,1-.39-.14,2.77,2.77,0,0,1,0-2.61,1.23,1.23,0,0,1,1.3-.17,9.3,9.3,0,0,1,3.87,2.65Z"/><path class="cls-4" d="M216,40.28c-1.91,0-3.72,0-5.53,0-.43,0-1.21-1.07-1.15-1.49a.28.28,0,0,1,.29-.25l.75,0h3.41C215.2,38.5,215.44,38.68,216,40.28Z"/><path class="cls-5" d="M35.76,27.88h-4a.6.6,0,0,1-.68-.52,3.09,3.09,0,0,0-.19-.61c-.51-1.15-.56-1.21.91-1.21,2.29,0,2.29,0,3.77,1.71A.67.67,0,0,1,35.76,27.88Z"/><path class="cls-7" d="M28,22.11h2.48a.75.75,0,0,1,.55.29l2,2.13a6.86,6.86,0,0,1-2.94.21.6.6,0,0,1-.25-.19C29.21,23.79,28.66,23,28,22.11Z"/><path class="cls-8" d="M207.86,39.74a1.58,1.58,0,0,1-.93.13c-1.71,0-3.42,0-5.14,0a1.44,1.44,0,0,1-1.55-.85c.14-.31.42-.22.65-.22,2,0,3.93,0,5.89,0C207.65,38.81,207.65,38.83,207.86,39.74Z"/><path class="cls-6" d="M207.58,46.73c3.35.06,6.54-.26,9.69.45,0,.4-.35.41-.63.41h-8C208.16,47.59,207.84,47.39,207.58,46.73Z"/><path class="cls-9" d="M203,37.3h3.3a3.06,3.06,0,0,1,.74.09.41.41,0,0,1,.26.42c0,.23-.19.27-.38.29h-6.82a4.78,4.78,0,0,1-.53,0c-.31,0-.59-.23-.58-.52s.37-.26.6-.26Z"/><path class="cls-5" d="M201.89,40.64h5.81a2,2,0,0,1,.74.08.56.56,0,0,1,.39.67c-.07.25-.35.18-.55.18h-5.13C202.59,41.58,202.21,41.36,201.89,40.64Z"/><path class="cls-10" d="M203.62,42.56a.5.5,0,0,1,.5-.18H209c.51,0,.91.12,1.08.62-.12.3-.36.24-.55.24-1.61,0-3.21,0-4.82,0C204.22,43.24,203.77,43.15,203.62,42.56Z"/><path class="cls-11" d="M205.08,44.16a1.2,1.2,0,0,1,.9-.2h4.37c.8,0,.8,0,1.23.71a.55.55,0,0,1-.49.15h-4.9A1,1,0,0,1,205.08,44.16Z"/><path class="cls-6" d="M29.82,21.32c-1.65.2-3.16.3-4.12-1.29A3,3,0,0,1,29.82,21.32Z"/><path class="cls-7" d="M24.77,28.69c1.48,0,3,0,4.44,0,.42,0,.54.27.36.65a1.25,1.25,0,0,1-1.23.66,7.12,7.12,0,0,1-3.6-1.08Z"/><path class="cls-5" d="M38.2,30.36a7,7,0,0,1-1.68.09c-1.71,0-3.42,0-5.13,0-.2,0-.48,0-.48-.26a.44.44,0,0,1,.43-.41l.42,0h5.45A.86.86,0,0,1,38.2,30.36Z"/><path class="cls-12" d="M23,18.16a21.66,21.66,0,0,1,3.67-.05c.42,0,.69.32.88.78a7,7,0,0,1-2.27.17A2.64,2.64,0,0,1,23,18.16Z"/><path class="cls-13" d="M209.61,48.39h6C214.65,49.26,211.37,49.32,209.61,48.39Z"/><path class="cls-14" d="M213.21,45.87a24.27,24.27,0,0,1-6.51-.08A19.28,19.28,0,0,1,213.21,45.87Z"/><path class="cls-6" d="M24.73,16.26H18.85C19.73,15.64,23,15.6,24.73,16.26Z"/><path class="cls-13" d="M36.73,28.88H31.56v-.15h5.15Z"/><path class="cls-15" d="M21,17.16H25.8v.12H21Z"/><path class="cls-2" d="M150.17,32c.25,2.9.19,5.72.19,8.53,0,1.52.17,1.55-1.5,1.54h-2.57c-.54,0-.79-.23-.77-.77,0-.21,0-.43,0-.64V24c0-.25,0-.5,0-.75,0-.51.25-.69.73-.68,1,0,2.07,0,3.11,0a1.25,1.25,0,0,1,1.32.82c1.11,2.24,2.26,4.45,3.4,6.67l1.44,2.79a1.86,1.86,0,0,0,.15-1.21c-.18-2.56-.13-5.13-.14-7.7,0-.25,0-.5,0-.75a.52.52,0,0,1,.58-.59h3.64c.46,0,.64.24.63.67,0,.22,0,.43,0,.64v16.8c0,.29,0,.57,0,.86a.5.5,0,0,1-.54.54c-1.28,0-2.57,0-3.85,0-.49,0-.6-.45-.77-.79-1.06-2-2.1-4-3.14-6.08-.44-.86-.87-1.72-1.32-2.57C150.66,32.37,150.62,32.09,150.17,32Z"/><path class="cls-2" d="M92.54,31.63c0,.07.06.16.11.19a4.59,4.59,0,0,1,2.21,4,7.05,7.05,0,0,1-.29,2.54c-.66,2.31-2.39,3.27-4.6,3.55a21.74,21.74,0,0,1-2.56.11q-2.73,0-5.46,0c-1.15,0-1.17,0-1.17-1.11V23.61c0-1.07,0-1.1,1.06-1.09,2.64.05,5.28-.14,7.91.12l.11,0c4.15.54,5.87,4.65,3.37,8.05A3.64,3.64,0,0,0,92.54,31.63Z"/><path class="cls-2" d="M124.22,32.32v8.24c0,.29,0,.57,0,.86s-.18.61-.57.61h-3.85c-.63,0-.63-.45-.63-.9,0-1.71,0-3.42,0-5.13s.06-1.5-1.51-1.51H115.5c-1.09,0-1.1,0-1.1,1.16,0,1.78,0,3.56,0,5.35,0,1.1,0,1.11-1.14,1.12s-2.07,0-3.1,0c-.55,0-.79-.24-.77-.78,0-.25,0-.5,0-.75v-17c0-1,.05-1.06,1.1-1.07s2.07,0,3.11,0c.73,0,.79.07.8.81,0,1.42,0,2.85,0,4.28,0,.25,0,.5,0,.75,0,.73,0,.75.83.77,1,0,2.07,0,3.11,0,.74,0,.79-.07.81-.8,0-1.32,0-2.64,0-4,0-2.13-.21-1.83,1.91-1.85.75,0,1.5,0,2.24,0s.9.05.91.93c0,2.28,0,4.56,0,6.84Z"/><path class="cls-2" d="M127.81,29.44c0-2,0-3.92,0-5.89,0-1,0-1,1-1h3c.94,0,1,0,1,1,0,2.11,0,4.21,0,6.32,0,1.57,0,3.14,0,4.71a5.71,5.71,0,0,0,.26,1.79,2.22,2.22,0,0,0,4.16.09,5.81,5.81,0,0,0,.3-2.11c0-3.31,0-6.63,0-10,0-.29,0-.57,0-.86,0-.92,0-.94,1-.95h3.1c.93,0,1,0,1,1,0,2.61,0,5.21,0,7.82a41.42,41.42,0,0,1-.16,4.59,10.83,10.83,0,0,1-.69,2.91,5.57,5.57,0,0,1-3.94,3.46,10.64,10.64,0,0,1-5.2,0,5.53,5.53,0,0,1-4-3.52,10.23,10.23,0,0,1-.74-3.54c0-1.93,0-3.85,0-5.78Z"/><path class="cls-2" d="M167.05,34.79V28.7c0-1.05,0-1.05-1.09-1.06-.89,0-1.79,0-2.68,0-.56,0-.75-.23-.74-.76,0-1.14,0-2.29,0-3.43,0-.9,0-.93,1-.93h10c.79,0,1.57,0,2.35,0,.49,0,.73.19.73.69q0,1.88,0,3.75c0,.5-.25.68-.73.68-.93,0-1.85,0-2.78,0s-1,0-1,1c0,3.77,0,7.55,0,11.33,0,.46,0,.93,0,1.39s-.24.64-.66.64c-1.22,0-2.43,0-3.64,0-.62,0-.68-.11-.68-.93,0-2.1,0-4.2,0-6.31Z"/><path class="cls-2" d="M69.87,29.82c0,2.07,0,4.13,0,6.2a8.51,8.51,0,0,1-.64,3,5.26,5.26,0,0,1-4,3.36,12.29,12.29,0,0,1-3.73.15A6.63,6.63,0,0,1,57.09,40a.43.43,0,0,1,0-.66l2.34-2.5a.41.41,0,0,1,.65,0c.18.17.36.35.55.5a3.64,3.64,0,0,0,1.51.78,2,2,0,0,0,2.77-2c0-.42,0-.85,0-1.28v-11c0-1.21,0-1.21,1.26-1.21,1,0,1.93,0,2.89,0,.77,0,.85.09.86.88,0,2.14,0,4.28,0,6.42Z"/><path class="cls-2" d="M96.2,39.93a2.64,2.64,0,1,1,5.28,0,2.71,2.71,0,0,1-2.58,2.63A2.66,2.66,0,0,1,96.2,39.93Z"/><path class="cls-2" d="M75.67,39.89a2.61,2.61,0,1,1-2.62-2.63A2.55,2.55,0,0,1,75.67,39.89Z"/><path class="cls-4" d="M85.85,35.62c0-1.76-.28-1.73,1.73-1.7a7.46,7.46,0,0,1,1.16.1,1.54,1.54,0,0,1,1.46,1.76,1.53,1.53,0,0,1-1.54,1.69c-.7.07-1.42,0-2.13,0-.5,0-.7-.24-.69-.72S85.85,36,85.85,35.62Z"/><path class="cls-16" d="M85.84,28.7c0-1.58,0-1.58,1.56-1.58h.75c1,.07,1.41.41,1.47,1.32a1.55,1.55,0,0,1-1.25,1.83,9.12,9.12,0,0,1-1.81.08c-.48,0-.73-.2-.72-.7C85.85,29.34,85.84,29,85.84,28.7Z"/></g></g></g></svg>