<svg xmlns="http://www.w3.org/2000/svg" viewBox="0 0 119.58 57.35"><defs><style>.cls-1{fill:gray;}</style></defs><g id="Layer_2" data-name="Layer 2"><g id="Layer_1-2" data-name="Layer 1"><path class="cls-1" d="M51.36,16.43V16H74.23V41l-.5,0H54.28c-.7,0-1.41-.07-2.1,0-.35,0-.55-.11-.62-.38a6.49,6.49,0,0,1-.2-1.45Q51.35,27.79,51.36,16.43Zm2.69,21a2.19,2.19,0,0,0,2.24,2.2c1.83,0,3.67,0,5.5,0a2.35,2.35,0,0,0,2.51-2.53c0-1,0-2,0-2.92a2.21,2.21,0,0,0-2.37-2.31H56.29A2.23,2.23,0,0,0,54,34.08C54,35.18,54,36.28,54.05,37.39Z"/><path class="cls-1" d="M51.55,14l.12-1.24q.46-4.62.94-9.24c.1-1,.21-1.94.36-2.9.08-.54.32-.7.87-.64a13.89,13.89,0,0,1,1.41.25L67.61,3.05A42.64,42.64,0,0,1,79.79,7.36a26.7,26.7,0,0,1,6.83,5c.79.87,1.54,1.76,2.39,2.74H76.66c0-.55-.41-.6-.84-.59l-.91,0H52C51.64,14.5,51.51,14.37,51.55,14Zm3.35-2.84a2.39,2.39,0,0,0,2.44,2.37H61v0c1.22,0,2.43,0,3.64,0a2.15,2.15,0,0,0,2.23-2.28c0-.55,0-1.09,0-1.63a2.55,2.55,0,0,0-2.19-2.7c-2.47-.52-4.94-1-7.4-1.55a1.86,1.86,0,0,0-2.37,1.85C54.89,8.54,54.88,9.87,54.9,11.19Z"/><path class="cls-1" d="M119.1,44.09c0-.38-.19-.4-.48-.4-1.15,0-2.3,0-3.44-.07a2.55,2.55,0,0,1-2.32-1.6,1.89,1.89,0,0,1,.16-2,2.07,2.07,0,0,1,1.92-.61,2.08,2.08,0,0,0,.57,0c-.38-.27-.74-.55-1.13-.8a21.73,21.73,0,0,0-8.63-3.22,18.46,18.46,0,0,0-8.91.79.68.68,0,0,0-.56.69,1.82,1.82,0,0,1-.52,1c-1.2,1.18-2.46,2.32-3.67,3.5s-2.17,2.14-3.22,3.24a1.5,1.5,0,0,1-1.22.5c-1,0-2.05,0-3.07,0a1.35,1.35,0,0,0-.46.17l0,.16.41,0H93.2a.71.71,0,0,0,.71-.4,9,9,0,0,1,7.22-4.36,8.15,8.15,0,0,1,4.29.94,8.45,8.45,0,0,1,2.56,2,1.44,1.44,0,0,0,1.18.5c3.19,0,6.39,0,9.58,0Z"/><path class="cls-1" d="M26.56,42.26a7.55,7.55,0,1,1-7.47,7.52A7.52,7.52,0,0,1,26.56,42.26ZM26.63,54a4.16,4.16,0,1,0,0-8.32,4.13,4.13,0,0,0-4.13,4.18A4.17,4.17,0,0,0,26.63,54Z"/><path class="cls-1" d="M8.67,42.26a7.55,7.55,0,1,1-7.48,7.56A7.54,7.54,0,0,1,8.67,42.26ZM8.74,54a4.18,4.18,0,0,0,4.16-4.19,4.16,4.16,0,1,0-8.32.09A4.2,4.2,0,0,0,8.74,54Z"/><path class="cls-1" d="M101.23,42.25a7.67,7.67,0,0,1,7.84,7.33,7.56,7.56,0,1,1-7.84-7.33ZM101.49,54a4.21,4.21,0,0,0,4.19-4.18A4.16,4.16,0,1,0,101.49,54Z"/><path class="cls-1" d="M79.51,28.58l6.36,1.08a.59.59,0,0,1,.52.45A2.42,2.42,0,0,0,87,31c.37.35.82.61,1.21.94a1.18,1.18,0,0,0,1.32.29c.48-.21.46-.64.53-1.08,0-.25.32-.62.52-.64.82-.09,1,.11,1,.91v5.71A2.26,2.26,0,0,1,91,38.76c-.62.65-1.2,1.33-1.83,2a1,1,0,0,1-.64.28c-3.21,0-6.42,0-9.63,0H77.65V28.26Zm7.12,9.6a1.26,1.26,0,0,0,1.31,1.27,2.45,2.45,0,0,0,2.27-1,1.74,1.74,0,0,0,.34-.86,20.2,20.2,0,0,0,0-2.06,1.16,1.16,0,0,0-1.09-1.28,12.69,12.69,0,0,0-1.6-.26,1.1,1.1,0,0,0-1.25,1.18c0,.26,0,.51,0,.77v.71C86.62,37.19,86.61,37.68,86.63,38.18Zm-6.14,1.54h.81a.78.78,0,0,0,.9-.82c0-.34,0-.67,0-1A.83.83,0,0,0,81.3,37c-.55,0-1.11,0-1.67,0a.8.8,0,0,0-.85.83.11.11,0,0,0,0,0C78.75,39.65,78.7,39.77,80.49,39.72Z"/><path class="cls-1" d="M93.45,45.87a17.56,17.56,0,0,0-1.93,6.9H39.45c-.29,0-.43-.06-.48-.38a17.21,17.21,0,0,0-.38-1.87,14,14,0,0,0-1.47-4.33l-.18-.32ZM38.87,48.18a6.54,6.54,0,0,0,.28.6c.24.59.52,1.16.71,1.76a2,2,0,0,0,2.1,1.4c1.34,0,2.69,0,4,0H90.7c.36,0,.72,0,.85-.44a.77.77,0,0,0-.4-.93,6.7,6.7,0,0,0-2.89-.9c-.31-.06-.63-.08-1-.12.12-.47.24-.88.34-1.3a1,1,0,0,0-1.07-1.36H40.61c-.3,0-.6,0-.91,0A1,1,0,0,0,38.87,48.18Z"/><path class="cls-1" d="M73.67,44.74V41.45l-.37,0H53.85a2.67,2.67,0,0,0-1.76.6c-.68.53-1.38,1-2.08,1.53a.61.61,0,0,1-.35.11l-11.54,0h-1.2a1.25,1.25,0,0,0,1.21,1.1,5.72,5.72,0,0,0,.72,0H46.7c2,0,3.92-.05,5.88-.05l13.75.05h7.34Z"/><path class="cls-1" d="M109.22,45.16A15.7,15.7,0,0,1,111,50.88a2.58,2.58,0,0,1-.14,1.84c.56-.1,1.06-.21,1.57-.28,1.67-.23,3.35-.44,5-.66.15,0,.29,0,.43,0a1.14,1.14,0,0,0,1-1.77,6.58,6.58,0,0,1-1.09,0c-.51-.1-.75-.66-.65-1.37.06-.47.36-.69.93-.68a1.28,1.28,0,0,0,1.38-1c-.13,0-.24,0-.36,0-.56,0-1.12,0-1.68,0a2.79,2.79,0,0,1-2.65-1.39.66.66,0,0,0-.66-.34C112.51,45.17,110.93,45.16,109.22,45.16Z"/><path class="cls-1" d="M116.1,39.29c-.14-1.08-.28-2.21-.45-3.32a.5.5,0,0,0-.3-.33,94.2,94.2,0,0,0-12.4-3c-2.19-.34-4.37-.75-6.59-1.14V35.9C103.56,33.5,110.08,35,116.1,39.29Z"/><path class="cls-1" d="M90.13,19.48,88.3,16.69s0-.05,0-.08c-.37-1-1.14-1.24-2.16-1.16-1.38.1-2.77.08-4.16.08-1.07,0-2.13,0-3.2,0h-3a.49.49,0,0,0-.56.52c0,.64,0,1.27,0,1.91a.64.64,0,0,0,.72.67c1.29,0,2.58,0,3.87,0,.83,0,1.66,0,2.49,0l5.12,0a2.72,2.72,0,0,1,2.17.82c.11.12.35.13.54.19Z"/><path class="cls-1" d="M76.21,19a6.33,6.33,0,0,1-.73-.14,1,1,0,0,1-.73-1.06,8.55,8.55,0,0,0-.08-1.33V41h1.54Z"/><path class="cls-1" d="M95.88,31.39,92,30.72c0,.17,0,.31,0,.44,0,1.93,0,3.87,0,5.8a3.05,3.05,0,0,1-1,2.4c-.51.48-1,1-1.5,1.64.88,0,1.67,0,2.46,0,.12,0,.24-.13.34-.23,1.11-1.08,2.22-2.16,3.31-3.26a1.09,1.09,0,0,0,.32-.66c0-1.75,0-3.51,0-5.26A1,1,0,0,0,95.88,31.39Z"/><path class="cls-1" d="M76.58,41.45v3.26h3.9V42.29c0-.56.09-.64.64-.64h2.73c.35,0,.64.06.67.5,0,0,.08.12.13.16.81.53.78.9-.14,1.38v.65c0,.11,0,.22,0,.41h3.24a.84.84,0,0,0,.53-.14c1.09-1,2.17-2.06,3.31-3.15Z"/><path class="cls-1" d="M96.54,28.93a.89.89,0,0,0,0,.19c0,.77,0,.77.74.89a66.69,66.69,0,0,1,8.88,1.63c2.15.62,4.27,1.32,6.4,2l3,.93c0-.53-.05-1-.13-1.47,0-.11-.24-.22-.39-.27-1.88-.6-3.75-1.27-5.65-1.77-3.12-.82-6.25-1.55-9.38-2.29a4.17,4.17,0,0,0-1.11.05Z"/><path class="cls-1" d="M109.29,51.45c.71-.32,1.19-.19,1.45.54a15.28,15.28,0,0,0-1.52-6,9.32,9.32,0,0,0-3.85-3.94,8.2,8.2,0,0,0-10.24,2,13.22,13.22,0,0,0-2.92,6.52c-.15.85-.25,1.71-.39,2.71.54-.29.93-.49,1.31-.72.07-.05.1-.18.13-.27.12-.31.24-.61.34-.92a1.11,1.11,0,0,0,.05-.44,7.9,7.9,0,0,1,6.83-9,7.55,7.55,0,0,1,7.12,2.77,7.78,7.78,0,0,1,1.72,6.44C109.32,51.22,109.31,51.28,109.29,51.45Z"/><path class="cls-1" d="M20.71,44.51h-6a8.11,8.11,0,0,1,1.61,7.78h2.8A8.06,8.06,0,0,1,20.71,44.51Z"/><path class="cls-1" d="M84.58,29.06a1.5,1.5,0,0,1-.17-.45c0-.72-.47-.81-1.07-.87-1.17-.1-2.34-.28-3.51-.41a1.16,1.16,0,0,1-1.16-1.11,11.78,11.78,0,0,1,0-1.19c0-1.2,0-2.4,0-3.6a1.32,1.32,0,0,1,1.5-1.49H86.2l.31-.94h-.44l-5.85-.09a2.39,2.39,0,0,0-2.59,2.5c0,2.14,0,4.28,0,6.45l3.46.61Z"/><path class="cls-1" d="M95.08,19.38a16,16,0,0,0-2.7-3.79c-.12-.09-.27-.22-.4-.22-1.3,0-2.6,0-4,.07l.52.83c.65,1,1.3,2,2,3a.63.63,0,0,0,.43.29c1.38,0,2.77,0,4.15,0Z"/><path class="cls-1" d="M75.87,45.1H53.16c-1.24,0-2.49,0-3.73,0l-11.07,0a1.73,1.73,0,0,1-1.64-.93c-.38-.66-.48-.66-1.31-.5.38.55.74,1.12,1.15,1.64.09.11.34.13.52.13,4.32,0,8.65,0,13,0l25,0a4.26,4.26,0,0,0,.62,0c.11,0,.19-.14.29-.21Z"/><path class="cls-1" d="M73.66,15.53v-.65H73.1c-7,0-14,0-21.08,0-.49,0-.67.15-.58.66Z"/><path class="cls-1" d="M119,40.53c-.26-.38-.84.22-.83-.49l.7-.15,0-.15-.46-.13-.46-.16c.25-.38.84-.06.81-.59-.25-.26-.76.25-.88-.35.75-.13.75-.13.74-.45-.25,0-.51,0-.76-.06,0,0,0-.17,0-.26.71-.17.71-.17.7-.42-.22-.23-.77.37-.8-.33l.07,0,.65-.3-.76-.15-.06-.24c.21-.24.7.08.7-.48a4.47,4.47,0,0,1-.52,0,1,1,0,0,1-.28-.16c.08-.07.14-.18.23-.22a1.8,1.8,0,0,1,.4-.1c.08-1.39-.89-1.85-2.38-2.15.11,1.12.21,2.23.33,3.33.07.67.16,1.33.26,2a3.29,3.29,0,0,0,1.06,2.23,6.93,6.93,0,0,1,.74.87c.24.27.49.24.6-.11A8,8,0,0,0,119,40.53Z"/><path class="cls-1" d="M0,55.77H2.24A3.73,3.73,0,0,0,2,53.84a7.73,7.73,0,0,1,.24-8.5l.17-.29a1.25,1.25,0,0,0-1.58.77A.37.37,0,0,1,.56,46c-.49.06-.56.38-.56.79C0,48.9,0,51,0,53.12Z"/><path class="cls-1" d="M118.76,43.22a7.54,7.54,0,0,0-2.7-3.11,3.62,3.62,0,0,0-1.33-.37,1.5,1.5,0,0,0-1.49.57,1.63,1.63,0,0,0,0,1.68A2,2,0,0,0,115,43.21c1.24.13,2.48.13,3.72.19Z"/><path class="cls-1" d="M96.32,30.22a3,3,0,0,1,0,.43c0,.35.11.46.44.52,2.85.49,5.71.9,8.53,1.51s5.82,1.43,8.73,2.17c.51.12,1,.28,1.51.42l.09-.11c-.09-.09-.18-.23-.29-.26-4-1.21-8-2.75-12.11-3.56-2.13-.41-4.29-.69-6.43-1Z"/><path class="cls-1" d="M78.5,19H76.66c0,.14,0,.27,0,.39q0,9.78,0,19.55c0,.52,0,1,0,1.57s0,.45.56.42V38.81c0-5.56,0-11.11,0-16.67C77.24,21,77.27,19.83,78.5,19Z"/><path class="cls-1" d="M31.69,43.64a8.08,8.08,0,0,1,2.5,8.65h2.66c-.21-.95-.41-1.87-.62-2.78a15.72,15.72,0,0,0-2.89-5.39C32.92,43.5,32.35,43.62,31.69,43.64Z"/><path class="cls-1" d="M36.94,52.74h1.75c-.24-1.09-.5-2.14-.7-3.19a13.57,13.57,0,0,0-3-5.71.63.63,0,0,0-.39-.21,7.53,7.53,0,0,0-.95,0h-.18c.63.94,1.26,1.84,1.85,2.76a14.18,14.18,0,0,1,1.74,5.23C37.22,52.39,37.21,52.39,36.94,52.74Z"/><path class="cls-1" d="M21.22,43.5a5.17,5.17,0,0,0,1.13-.38A7.82,7.82,0,0,1,27,41.89c.58,0,1.16.13,1.87.22l-.32-.82a1.4,1.4,0,0,0-1.84-.87c-1.74.36-3.52.56-5.29.81-.35.05-.48.21-.43.54C21,42.31,21.13,42.86,21.22,43.5Z"/><path class="cls-1" d="M91.52,30.25A8.53,8.53,0,0,0,91,26.67c-.66-2-1.4-4.06-2.11-6.09a2.12,2.12,0,0,0-1.21-1.38,1.21,1.21,0,0,1,.07.34c-.1,1.5.72,2.74,1.14,4.09.34,1.08.82,2.12,1.1,3.21a11.89,11.89,0,0,1,.29,2.59c0,.51.16.73.65.75A4.49,4.49,0,0,1,91.52,30.25Z"/><path class="cls-1" d="M89.07,19.68a4.32,4.32,0,0,0,.17.56c1,2.27,1.94,4.55,3,6.79A7.11,7.11,0,0,0,93.59,29a3.49,3.49,0,0,0,1.49.78c.78.23.92.06.81-.77,0,0-.08-.05-.13,0a2.45,2.45,0,0,1-2.48-1.67c-1-2.23-2-4.51-2.94-6.76-.14-.33-.23-.66-.71-.58C89.49,20,89.32,19.8,89.07,19.68Z"/><path class="cls-1" d="M84.75,25.56a4.45,4.45,0,0,1,.79,0,3.64,3.64,0,0,1,.67.24V20.3a10.44,10.44,0,0,0-1.38,0c-.12,0-.3.3-.3.47,0,1.4,0,2.8,0,4.2A2,2,0,0,0,84.75,25.56Z"/><path class="cls-1" d="M80.89,42.07v2.64h3.22c0-.45.18-.89-.27-1.28-.26-.21-.06-.92.31-1.36Z"/><path class="cls-1" d="M74.09,44.72h2.07V41.43H74.09Z"/><path class="cls-1" d="M20.81,43.52l-.3-2.14-1.06.32c-.73.22-1.46.45-2.2.64-.31.09-.39.24-.3.52,0,0,0,.06,0,.09.42,1.2.19,1,1.35.9Z"/><path class="cls-1" d="M119.56,46.48a3.33,3.33,0,0,0,0-1A.82.82,0,0,0,119,45c-1.34,0-2.67,0-4.1,0a2.49,2.49,0,0,0,1.86,1.51C117.64,46.55,118.58,46.48,119.56,46.48Z"/><path class="cls-1" d="M95.9,31v-.76c-2.21.12-3.21-1.39-4.08-3.05-.23-.43-.4-.89-.62-1.38.21.93.44,1.81.61,2.7.09.5.06,1,.12,1.52,0,.14.13.37.23.38,1.21.23,2.42.42,3.63.62Z"/><path class="cls-1" d="M86.2,26.09c-.36,0-.72-.06-1.08-.06a.48.48,0,0,0-.52.51,15.7,15.7,0,0,0,.16,1.94c0,.16.28.35.46.4a5,5,0,0,0,1,.1Z"/><path class="cls-1" d="M89.11,30.69l-.14.39c-1.31-.66-1.45-.88-1.59-2.46h-.69a2,2,0,0,0,.74,2.25,8.79,8.79,0,0,0,1.22.91.87.87,0,0,0,.8,0c.18-.16.19-.55.18-.83C89.62,30.86,89.3,30.78,89.11,30.69Z"/><path class="cls-1" d="M96.33,28.6c-.49-1.17-.92-2.31-1.44-3.41-.78-1.66-1.61-3.3-2.44-4.94-.07-.14-.24-.23-.37-.35L92,20c.27.52.56,1,.8,1.55,1,2.13,2,4.27,2.93,6.4C95.8,28.21,95.79,28.62,96.33,28.6Z"/><path class="cls-1" d="M89.92,30.52v-2l-1.45-.16c0,.59,0,1.14,0,1.69,0,.09.14.21.24.23C89.1,30.36,89.49,30.43,89.92,30.52Z"/><path class="cls-1" d="M80,45.46h3.34c.14,0,.26-.13.4-.2a1.22,1.22,0,0,0-.4-.15q-3.36,0-6.72,0c-.12,0-.23.12-.35.18.11.06.23.16.34.16Z"/><path class="cls-1" d="M16.9,44.11a.65.65,0,0,0,0-.1c-.24-.76-.24-.76-1.07-.76H14c-.14.67,0,.85.63.86Z"/><path class="cls-1" d="M86.67,22.3h.73c0-.89,0-1.78,0-2.66,0-.11-.26-.32-.37-.3a.53.53,0,0,0-.33.38C86.65,20.56,86.67,21.4,86.67,22.3Z"/><path class="cls-1" d="M86.67,26.73h.7V24.2h-.7Z"/><path class="cls-1" d="M118.46,49.59l-.17-1.29c-.21,0-.65,0-.68.16a1.4,1.4,0,0,0,0,1C117.8,49.78,118.18,49.7,118.46,49.59Z"/><path class="cls-1" d="M119.45,44.45h-10.6A96,96,0,0,0,119.45,44.45Z"/><path class="cls-1" d="M74.08,14.94v.49l.64.51c.26-.71.39-.81,1.35-1Z"/><path class="cls-1" d="M86.57,28.18h.87v-1h-.87Z"/><path class="cls-1" d="M86.54,22.74v1h.86v-1Z"/><path class="cls-1" d="M88,28.23a1.26,1.26,0,0,0,0,1.45Z"/><path class="cls-1" d="M84.26,43.33l.56-.4-.65-.45v.7Z"/><path class="cls-1" d="M19.82,44c.5,0,1,.25,1.47-.2Z"/><path class="cls-1" d="M54.44,37.51a1.77,1.77,0,0,0,1.74,1.69c1.92,0,3.84,0,5.75,0a1.9,1.9,0,0,0,2-2c0-1,0-2.1,0-3.16a1.85,1.85,0,0,0-1.85-1.82H56.3A1.87,1.87,0,0,0,54.43,34C54.41,35.17,54.41,36.34,54.44,37.51Z"/><path class="cls-1" d="M55.29,7.58c0-1.51.74-2.09,2.2-1.79,2.43.52,4.87,1,7.3,1.52a2.18,2.18,0,0,1,1.71,2c0,.63,0,1.25,0,1.87a1.79,1.79,0,0,1-1.89,1.94c-1.21,0-2.43,0-3.64,0H57.44A2,2,0,0,1,55.27,11C55.28,9.85,55.29,8.71,55.29,7.58Zm.94,3.3a1.65,1.65,0,0,0,1.83,1.75h2.87v0h3a1.59,1.59,0,0,0,1.7-1.7c0-.46,0-.93,0-1.39a2.07,2.07,0,0,0-1.65-2L57.83,6.28a1.29,1.29,0,0,0-1.65,1.35C56.18,8.71,56.2,9.8,56.23,10.88Z"/><path class="cls-1" d="M26.55,47.19a2.6,2.6,0,0,1,2.72,2.44A2.63,2.63,0,1,1,24,50,2.57,2.57,0,0,1,26.55,47.19Zm0,4.88a2.29,2.29,0,0,0,2.37-2.19,2.29,2.29,0,0,0-4.57-.14A2.32,2.32,0,0,0,26.55,52.07Z"/><path class="cls-1" d="M23.93,51.37a1.51,1.51,0,0,1,1.13,1.16.45.45,0,0,1-.58.45,1.58,1.58,0,0,1-1-1A.46.46,0,0,1,23.93,51.37Zm.7,1.22a1.12,1.12,0,0,0-.84-.89A1.12,1.12,0,0,0,24.63,52.59Z"/><path class="cls-1" d="M28.84,46.62a1.49,1.49,0,0,1,1,1,.46.46,0,0,1-.45.63,1.58,1.58,0,0,1-1.14-1.16A.44.44,0,0,1,28.84,46.62Zm.51,1.28.18-.19-.8-.8-.2.21Z"/><path class="cls-1" d="M24.58,46.59a.42.42,0,0,1,.42.64,3.2,3.2,0,0,1-.93.94c-.3.2-.63-.07-.63-.44A1.55,1.55,0,0,1,24.58,46.59Zm-.64,1.3.81-.77-.2-.21c-.27.26-.53.52-.79.79Z"/><path class="cls-1" d="M30,48.82c.34,0,.59.43.57,1s-.22.93-.54.93-.57-.38-.57-.95S29.68,48.83,30,48.82Zm.1,1.55V49.19A.8.8,0,0,0,30.11,50.37Z"/><path class="cls-1" d="M23.27,48.83c.32,0,.54.39.56.94s-.23,1-.58,1-.57-.43-.56-1S23,48.81,23.27,48.83Zm-.12,1.53h.16a1.23,1.23,0,0,0,0-1.12h-.19Z"/><path class="cls-1" d="M29.38,51.38a.44.44,0,0,1,.44.58,1.66,1.66,0,0,1-1.05,1,.42.42,0,0,1-.54-.44A1.45,1.45,0,0,1,29.38,51.38Zm-.64,1.3.79-.81-.13-.13a1.17,1.17,0,0,0-.8.8A.93.93,0,0,0,28.74,52.68Z"/><path class="cls-1" d="M26.61,52.63c.64,0,1,.2,1,.57s-.35.53-1,.52-1-.2-.95-.55S26,52.64,26.61,52.63Zm-.53.65H27.2v-.19H26.08Z"/><path class="cls-1" d="M26,46a3.11,3.11,0,0,1,1.29,0c.12,0,.28.31.28.47s-.19.33-.34.4a3.16,3.16,0,0,1-.74.12,3,3,0,0,1-.49-.18C25.54,46.56,25.52,46.19,26,46Zm1.29.5a.82.82,0,0,0-1.25,0Z"/><path class="cls-1" d="M8.73,47.17a2.64,2.64,0,1,1,0,5.28A2.67,2.67,0,0,1,6.1,49.79,2.64,2.64,0,0,1,8.73,47.17Zm0,4.9a2.26,2.26,0,1,0,0-4.52,2.22,2.22,0,0,0-2.26,2.23A2.25,2.25,0,0,0,8.74,52.07Z"/><path class="cls-1" d="M6.67,46.59a.45.45,0,0,1,.47.6,1.55,1.55,0,0,1-1,1,.45.45,0,0,1-.6-.47A1.53,1.53,0,0,1,6.67,46.59ZM6,47.85a1.21,1.21,0,0,0,.8-.79l-.16-.15-.78.8Z"/><path class="cls-1" d="M11,46.64a3.19,3.19,0,0,1,.92.91.45.45,0,0,1-.4.68A1.52,1.52,0,0,1,10.33,47,.42.42,0,0,1,11,46.64ZM11.48,48a.75.75,0,0,0-.84-.88Z"/><path class="cls-1" d="M11.44,51.38c.33,0,.51.15.48.49A1.44,1.44,0,0,1,10.81,53c-.31,0-.47-.13-.49-.36A1.46,1.46,0,0,1,11.44,51.38Zm-.61,1.31c.27-.26.53-.53.79-.8l-.12-.12a1.11,1.11,0,0,0-.81.77Z"/><path class="cls-1" d="M6.07,51.38a1.51,1.51,0,0,1,1.09,1.14c0,.34-.32.62-.6.43a3.32,3.32,0,0,1-1-1C5.39,51.67,5.68,51.36,6.07,51.38Zm.67,1.21a1.09,1.09,0,0,0-.85-.88A1.13,1.13,0,0,0,6.74,52.59Z"/><path class="cls-1" d="M4.8,49.75c0-.56.25-.94.57-.92s.54.38.54.94-.2,1-.54,1S4.78,50.36,4.8,49.75Zm.51.61h.15V49.24A.84.84,0,0,0,5.31,50.36Z"/><path class="cls-1" d="M12.1,48.82c.34,0,.59.42.58,1s-.21.91-.54.93-.56-.34-.57-.94S11.78,48.83,12.1,48.82ZM12,50.41a.82.82,0,0,0,0-1.27Z"/><path class="cls-1" d="M8.76,52.63c.63,0,1,.22,1,.58s-.38.51-1,.51-1-.2-1-.55S8.17,52.63,8.76,52.63Zm-.57.66H9.3V53.1H8.19Z"/><path class="cls-1" d="M8.73,45.85c.55,0,1,.23,1,.56s-.39.57-1,.57-1-.22-1-.54S8.15,45.86,8.73,45.85Zm-.54.66H9.31a1.15,1.15,0,0,0,0-.19H8.19Z"/><path class="cls-1" d="M101.48,47.17a2.61,2.61,0,0,1,2.66,2.62,2.63,2.63,0,1,1-2.66-2.62Zm0,4.9a2.26,2.26,0,1,0-2.29-2.29A2.3,2.3,0,0,0,101.52,52.07Z"/><path class="cls-1" d="M99,51.42a3.37,3.37,0,0,1,.93,1c.16.25-.13.56-.44.56a1.49,1.49,0,0,1-1.13-1.15C98.33,51.47,98.64,51.21,99,51.42Zm.51,1.22.15-.15-.81-.81a1.59,1.59,0,0,1-.13.13A1.26,1.26,0,0,0,99.48,52.64Z"/><path class="cls-1" d="M99.44,46.59a.44.44,0,0,1,.48.55,1.61,1.61,0,0,1-1.07,1.07.41.41,0,0,1-.53-.37A1.5,1.5,0,0,1,99.44,46.59Zm-.59,1.31c.25-.27.51-.53.85-.88-.61,0-.89.32-1,.77Z"/><path class="cls-1" d="M98.15,48.83c.31,0,.53.38.55.93s-.23,1-.58,1-.56-.39-.55-1S97.81,48.82,98.15,48.83Zm.09,1.51V49.16A.77.77,0,0,0,98.24,50.34Z"/><path class="cls-1" d="M104.23,51.37a.44.44,0,0,1,.46.57,1.47,1.47,0,0,1-1.07,1c-.32.05-.49-.08-.51-.4A1.45,1.45,0,0,1,104.23,51.37Zm-.71,1.26a1.28,1.28,0,0,0,.83-.79l-.15-.16-.81.81Z"/><path class="cls-1" d="M103.56,46.59a1.51,1.51,0,0,1,1.14,1.15.44.44,0,0,1-.56.47,1.66,1.66,0,0,1-1-1.05C103.05,46.81,103.23,46.58,103.56,46.59Zm.66,1.31c.07-.06.13-.13.19-.19l-.81-.8-.2.21Z"/><path class="cls-1" d="M101.5,45.86c.59,0,1,.21,1,.55s-.36.58-1,.57-1-.21-1-.55S100.91,45.87,101.5,45.86Zm.56.65a1.28,1.28,0,0,1,0-.19H101v.19Z"/><path class="cls-1" d="M101.26,52.64h.29c.59,0,.91.21.91.56s-.32.53-1,.53h-.25c-.32-.05-.68-.11-.69-.51S100.93,52.7,101.26,52.64Zm.82.45h-1.21A.81.81,0,0,0,102.08,53.09Z"/><path class="cls-1" d="M104.88,48.82c.35,0,.57.39.56,1s-.2.92-.54.93-.55-.36-.55-.95S104.55,48.83,104.88,48.82Zm0,1.55H105V49.24h-.15A1.12,1.12,0,0,0,104.85,50.37Z"/><path class="cls-1" d="M87,38.14a.84.84,0,0,0,1,.92,3.67,3.67,0,0,0,1.32-.28,1.52,1.52,0,0,0,.91-1.64c0-.52,0-1,0-1.58a.82.82,0,0,0-.74-.9c-.52-.09-1-.2-1.56-.26a.74.74,0,0,0-.88.81c0,.24,0,.48,0,.72s0,.48,0,.72,0,.27,0,.41C87,37.42,87,37.78,87,38.14Z"/><path class="cls-1" d="M80.79,39.3V37.42a11.93,11.93,0,0,0-1.2,0c-.15,0-.28.2-.4.33s0,.12,0,.18C79.18,39.46,78.88,39.41,80.79,39.3Z"/><path class="cls-1" d="M81.22,37.44V39.3c.39.1.56-.06.58-.39s0-.67,0-1S81.62,37.37,81.22,37.44Z"/><path class="cls-1" d="M39.25,48.15c.37.71.74,1.41,1.17,2.09a1.59,1.59,0,0,0,1.44.69H85.38c1,0,1.13-.12,1.38-1q.24-.85.45-1.71c.15-.58-.13-.93-.73-.93h-46c-.25,0-.51,0-.76,0A.6.6,0,0,0,39.25,48.15Z"/><path class="cls-1" d="M40.55,51a1.73,1.73,0,0,0,1.42.61H90.61a1.9,1.9,0,0,0,.61-.23c-.13-.18-.22-.43-.4-.53A7.92,7.92,0,0,0,87.2,50c-.53,1.25-.69,1.35-2.06,1.35H42.58A3.27,3.27,0,0,1,40.55,51Z"/><path class="cls-1" d="M56.58,7.71c0,1,0,2,0,3.06a1.34,1.34,0,0,0,1.52,1.49H64A1.25,1.25,0,0,0,65.28,11q0-.65,0-1.29a1.74,1.74,0,0,0-1.5-1.81l-5.9-1.19C57,6.5,56.57,6.86,56.58,7.71Z"/><path class="cls-1" d="M26.64,48.34a1.41,1.41,0,0,1,1.5,1.45,1.5,1.5,0,1,1-3,0A1.44,1.44,0,0,1,26.64,48.34Zm0,2.59a1.1,1.1,0,0,0,1.1-1.18,1.13,1.13,0,0,0-2.26,0A1.12,1.12,0,0,0,26.67,50.93Z"/><path class="cls-1" d="M8.76,48.31a1.46,1.46,0,0,1,1.47,1.5,1.5,1.5,0,0,1-1.49,1.5,1.52,1.52,0,0,1-1.5-1.49A1.49,1.49,0,0,1,8.76,48.31Zm0,2.62a1.11,1.11,0,0,0,1.14-1.1,1.13,1.13,0,1,0-2.26,0A1.13,1.13,0,0,0,8.73,50.93Z"/><path class="cls-1" d="M101.47,48.31A1.5,1.5,0,0,1,103,49.79a1.51,1.51,0,0,1-3,.05A1.5,1.5,0,0,1,101.47,48.31Zm.1,2.62a1.13,1.13,0,0,0,1.07-1.16,1.17,1.17,0,0,0-1.14-1.12,1.22,1.22,0,0,0-1.14,1.13A1.16,1.16,0,0,0,101.57,50.93Z"/></g></g></svg>