<svg xmlns="http://www.w3.org/2000/svg" viewBox="0 0 29.63 29.63"><defs><style>.cls-1{fill:none;stroke:#222221;stroke-miterlimit:10;stroke-width:1.12px;}.cls-2{fill:#222221;}</style></defs><g id="Layer_2" data-name="Layer 2"><g id="Layer_1-2" data-name="Layer 1"><path class="cls-1" d="M14.82,29.07h0A14.25,14.25,0,0,1,.56,14.82h0A14.25,14.25,0,0,1,14.82.56h0A14.25,14.25,0,0,1,29.07,14.82h0A14.25,14.25,0,0,1,14.82,29.07Z"/><path class="cls-2" d="M14.82,8.41c2.08,0,2.33,0,3.15,0a4.56,4.56,0,0,1,1.45.27,2.64,2.64,0,0,1,1.49,1.49,4.35,4.35,0,0,1,.27,1.45c0,.82,0,1.07,0,3.16s0,2.33,0,3.15a4.29,4.29,0,0,1-.27,1.45,2.64,2.64,0,0,1-1.49,1.49,4.29,4.29,0,0,1-1.45.27c-.82,0-1.07,0-3.15,0s-2.34,0-3.16,0a4.35,4.35,0,0,1-1.45-.27,2.64,2.64,0,0,1-1.49-1.49A4.56,4.56,0,0,1,8.45,18c0-.82,0-1.07,0-3.15s0-2.34,0-3.16a4.63,4.63,0,0,1,.27-1.45,2.64,2.64,0,0,1,1.49-1.49,4.63,4.63,0,0,1,1.45-.27c.82,0,1.07,0,3.16,0m0-1.41c-2.13,0-2.39,0-3.23,0a5.81,5.81,0,0,0-1.89.36A4,4,0,0,0,7.41,9.7a5.81,5.81,0,0,0-.36,1.89c0,.84,0,1.1,0,3.23s0,2.38,0,3.22a5.81,5.81,0,0,0,.36,1.89A4,4,0,0,0,9.7,22.22a5.55,5.55,0,0,0,1.89.36c.84,0,1.1.05,3.23.05s2.38,0,3.22-.05a5.55,5.55,0,0,0,1.89-.36,4,4,0,0,0,2.29-2.29A5.55,5.55,0,0,0,22.58,18c0-.84.05-1.1.05-3.22s0-2.39-.05-3.23a5.55,5.55,0,0,0-.36-1.89,4,4,0,0,0-2.29-2.29A5.81,5.81,0,0,0,18,7.05c-.84,0-1.1,0-3.22,0"/><path class="cls-2" d="M14.82,10.8a4,4,0,1,0,4,4,4,4,0,0,0-4-4m0,6.62a2.61,2.61,0,1,1,2.6-2.6,2.61,2.61,0,0,1-2.6,2.6"/><path class="cls-2" d="M19.93,10.64A.94.94,0,1,1,19,9.71a.94.94,0,0,1,.94.93"/></g></g></svg>