<svg xmlns="http://www.w3.org/2000/svg" viewBox="0 0 208.32 99.81"><defs><style>.cls-1{opacity:0.5;}.cls-2{fill:silver;}.cls-3{fill:#585858;}.cls-4{fill:#fefefe;}</style></defs><g id="Layer_2" data-name="Layer 2"><g id="Layer_1-2" data-name="Layer 1"><g class="cls-1"><path class="cls-2" d="M20.74,47.66c0-3.47,0-6.94,0-10.41s0-6.89,0-10.33c0-.67.19-.91.88-.89,1.72,0,3.45,0,5.17,0,.6,0,.81.18.81.8q0,10.49,0,21c0,.6-.18.8-.8.79-1.72,0-3.45-.06-5.17,0C20.86,48.64,20.74,48.34,20.74,47.66Z"/><path class="cls-2" d="M27.6,73c0,.7-.16,1-.91.94-1.7,0-3.4,0-5.09,0-.62,0-.86-.15-.86-.82q0-10.47,0-20.94c0-.58.14-.83.77-.81,1.75,0,3.51,0,5.26,0,.69,0,.82.26.82.87,0,3.48,0,6.95,0,10.43S27.57,69.53,27.6,73Z"/><path class="cls-2" d="M30.27,47.69q0-10.35,0-20.68c0-.74.19-1,1-1,1.66.05,3.34.05,5,0,.68,0,.89.21.88.88,0,4.63,0,9.25,0,13.87,0,.84.23,1.07,1.06,1.06,3.51-.05,7,0,10.52,0,.77,0,1-.19,1-1,0-4.59,0-9.19,0-13.78,0-.77.17-1.07,1-1,1.7.06,3.4,0,5.1,0,.56,0,.77.17.77.75q0,10.55,0,21.09c0,.69-.32.73-.85.73H43.42c-4.08,0-8.16,0-12.24,0C30.45,48.62,30.27,48.4,30.27,47.69Z"/><path class="cls-2" d="M56.52,52.25q0,10.38,0,20.76c0,.67-.17.92-.87.9q-2.51-.07-5,0c-.73,0-1-.17-1-1,0-4.59,0-9.19,0-13.79,0-1.05,0-1.05-1.08-1.05-3.48,0-7,0-10.44,0-.82,0-1.07.2-1.06,1,0,4.6,0,9.2,0,13.79,0,.73-.17,1-1,1-1.72-.06-3.45,0-5.17,0-.53,0-.72-.15-.72-.69q0-10.59,0-21.18c0-.66.33-.69.82-.69H43.42c4,0,8.11,0,12.16,0C56.29,51.33,56.53,51.51,56.52,52.25Z"/><path class="cls-2" d="M66,52q0,10.59,0,21.18c0,.55-.22.69-.74.68-1.77,0-3.56,0-5.34,0-.65,0-.76-.25-.76-.82,0-3.51,0-7,0-10.51s0-6.84,0-10.26c0-.72.15-1,.94-1,1.72.06,3.45,0,5.17,0C65.84,51.33,66,51.5,66,52Z"/><path class="cls-2" d="M66,26.82q0,10.5,0,21c0,.59-.16.81-.79.8-1.75,0-3.5,0-5.25,0-.69,0-.8-.26-.8-.86,0-3.5,0-7,0-10.49s0-6.89,0-10.33c0-.67.16-.92.86-.9,1.73,0,3.45,0,5.17,0C65.84,26,66.05,26.21,66,26.82Z"/><path class="cls-2" d="M87,26.18a1.8,1.8,0,0,0-1-1.75Q65.08,12.37,44.24.25a1.29,1.29,0,0,0-1.5,0q-10,5.82-20,11.59C15.53,16,8.3,20.24,1,24.42a1.72,1.72,0,0,0-1,1.73C0,34.06,0,42,0,49.88s0,15.76,0,23.64a1.92,1.92,0,0,0,1.15,1.91q8.06,4.62,16.07,9.29Q30,92.16,42.86,99.61a1.05,1.05,0,0,0,1.21,0q7.59-4.43,15.2-8.83Q72.62,83,86,75.31a1.69,1.69,0,0,0,1-1.68Q86.94,49.9,87,26.18ZM79.75,71.85Q66.4,79.55,53.1,87.29c-3,1.73-6,3.45-8.94,5.2a1.25,1.25,0,0,1-1.43,0Q25,82.18,7.28,71.92a2.06,2.06,0,0,1-1.19-2.07q.06-19.86,0-39.72a2.36,2.36,0,0,1,1.37-2.38c7.23-4.12,14.41-8.33,21.61-12.51q6.81-4,13.63-7.92a1.32,1.32,0,0,1,1.51,0Q62.06,17.7,79.94,28a1.44,1.44,0,0,1,.81,1.43c0,6.82,0,13.63,0,20.44s0,13.46,0,20.19A1.74,1.74,0,0,1,79.75,71.85Z"/><path class="cls-3" d="M120.27,71.42a8.91,8.91,0,0,1-4.54,3.1c-5.08,1.46-11.37-.29-13.69-7.23A19.78,19.78,0,0,1,102,54.18a11.45,11.45,0,0,1,12-7.78c2.82.19,5.4.9,7.43,3a10.66,10.66,0,0,1,2.74,5.84c.06.37.11.69-.45.74-1.57.14-3.15.31-4.72.5-.62.08-1-.08-1.08-.75a5.29,5.29,0,0,0-.74-1.89,4.59,4.59,0,0,0-7.62-.46,10.53,10.53,0,0,0-1.81,6,15.64,15.64,0,0,0,.82,6.54c.79,2.11,2.11,3.61,4.53,3.86a4.58,4.58,0,0,0,5-4.07c0-.56-.06-.85-.73-.82-1.29,0-2.58,0-3.87,0-.45,0-.63-.15-.63-.61q0-1.84,0-3.69c0-.44.13-.65.61-.65,3.42,0,6.84,0,10.27,0,.41,0,.58.14.58.57q0,6.69,0,13.38c0,.44-.15.62-.61.65-2.26.16-2.26.17-3-1.94C120.56,72.22,120.43,71.87,120.27,71.42Z"/><path class="cls-3" d="M124.46,36.71c0-4.27,0-8.53,0-12.8,0-.78.25-1,1-.94,1.47.05,3,0,4.43,0,.67,0,.84.22.83.85,0,3,0,6.07,0,9.11,0,.73.22.92.93.91,2.36,0,4.71,0,7.07,0,.62,0,.78-.2.78-.8,0-3.09,0-6.18,0-9.27,0-.61.16-.82.79-.8,1.56,0,3.12,0,4.68,0,.57,0,.76.17.76.75q0,13,0,25.93c0,.56-.16.77-.74.76-1.54,0-3.07,0-4.6,0-.67,0-.9-.16-.89-.86,0-3.2,0-6.4,0-9.6,0-.73-.21-.92-.92-.91-2.35.05-4.71,0-7.06,0-.63,0-.8.2-.79.8,0,3.22,0,6.45,0,9.68,0,.68-.18.9-.87.88-1.48,0-3-.06-4.44,0-.81,0-.93-.29-.93-1C124.47,45.19,124.46,41,124.46,36.71Z"/><path class="cls-3" d="M208,60.74a9.87,9.87,0,0,0-2.94-5.64c-2.29-2.17-7.52-2.89-9.87.69-.07.11-.13.25-.39.17a8.68,8.68,0,0,1,0-1c.08-.63-.19-.8-.79-.78-1.34,0-2.68,0-4,0-.47,0-.64.15-.62.61,0,.93,0,1.86,0,2.79,0,7.69,0,15.37,0,23.05,0,.69.14,1,.9.95,1.39-.06,2.79,0,4.18,0,.66,0,.85-.22.84-.85,0-2,0-4,0-6V73c.35,0,.43.18.55.31a5.78,5.78,0,0,0,4.33,1.83,7.73,7.73,0,0,0,7-4.94A16.94,16.94,0,0,0,208,60.74Zm-6.93,7.47c-.53,1.54-1.35,2.23-2.67,2.23a2.73,2.73,0,0,1-2.82-2.28,15.87,15.87,0,0,1,0-8.18,2.71,2.71,0,0,1,2.92-2.25c1.43,0,2.27.76,2.73,2.36a14.09,14.09,0,0,1,.33,3.9A12.25,12.25,0,0,1,201.07,68.21Z"/><path class="cls-3" d="M190.39,32.86c-2.51-3.92-8.44-4.78-11-.62v-.79c0-2.55,0-5.09,0-7.64,0-.62-.14-.87-.82-.84-1.34.05-2.68,0-4,0-1.08,0-1.08,0-1.08,1.06V48.51c0,2,0,2,2.05,2a1,1,0,0,0,1.14-.69c.21-.53.52-1,.76-1.54s.36-.46.67-.08A7.24,7.24,0,0,0,184.34,51a7.13,7.13,0,0,0,6.22-3.74,11.88,11.88,0,0,0,1.52-5.73C192.21,38.48,192.1,35.52,190.39,32.86Zm-5,11.7A2.63,2.63,0,0,1,183,46.64a2.76,2.76,0,0,1-2.86-1.9,11.88,11.88,0,0,1-.77-4.53,13.9,13.9,0,0,1,.53-4.09c.53-1.66,1.48-2.38,2.94-2.31a2.7,2.7,0,0,1,2.29,1.63,8.57,8.57,0,0,1,.91,3.79A13.17,13.17,0,0,1,185.43,44.56Z"/><path class="cls-3" d="M162.61,62.68c-.44-5.8-4.18-9.33-10.12-9.35a9.12,9.12,0,0,0-7.81,3.59A10.85,10.85,0,0,0,142.63,63c-.18,3,.2,5.92,2.08,8.41,2.21,2.92,5.32,3.72,8.81,3.56a9,9,0,0,0,8.59-6.65A15.32,15.32,0,0,0,162.61,62.68Zm-7,5.38a5.43,5.43,0,0,1-.6,1.43,2.62,2.62,0,0,1-4.68,0,8.78,8.78,0,0,1-1-3.92c0-.49,0-1,0-1.48a10.07,10.07,0,0,1,.83-4.87,2.67,2.67,0,0,1,3.24-1.57A2.76,2.76,0,0,1,155,59.08a7.79,7.79,0,0,1,.9,3.13A15.59,15.59,0,0,1,155.6,68.06Z"/><path class="cls-3" d="M178.22,71.7a8.32,8.32,0,0,1-3.05,2.71,7.55,7.55,0,0,1-6.78-.49,4.59,4.59,0,0,1-2-3.43,18.8,18.8,0,0,1-.26-3.51c0-3.94,0-7.88,0-11.82,0-.8.21-1,1-1,1.4.07,2.8.06,4.19,0,.66,0,.83.21.83.84,0,3.83,0,7.66,0,11.49a8.14,8.14,0,0,0,.18,1.71A2.19,2.19,0,0,0,175.36,70a3.4,3.4,0,0,0,2.33-2.91,9.76,9.76,0,0,0,.17-2c0-3.37,0-6.74,0-10.1,0-.69.2-.89.88-.87,1.42.05,2.85,0,4.27,0,.51,0,.66.18.66.67q0,9.48,0,19c0,.54-.17.73-.71.72q-2,0-4,0c-.52,0-.75-.15-.72-.7S178.22,72.56,178.22,71.7Z"/><path class="cls-3" d="M163.09,47.29a12.72,12.72,0,0,1-1.61,2c-2.11,1.85-4.53,1.92-7,1.1-2.25-.75-3.08-2.62-3.39-4.81a41.84,41.84,0,0,1-.13-5.25c0-3.14,0-6.29,0-9.44,0-.69.21-.9.89-.87,1.31,0,2.63,0,3.94,0,.71,0,.94.17.93.91,0,3.88,0,7.77,0,11.65a6.2,6.2,0,0,0,.18,1.55,2.34,2.34,0,0,0,1.54,2,2.9,2.9,0,0,0,2.83-.62,4.65,4.65,0,0,0,1.45-3.69c0-3.53,0-7.06,0-10.59,0-1.16,0-1.16,1.16-1.16,1.34,0,2.69,0,4,0,.49,0,.67.16.67.66q0,9.52,0,19.05c0,.49-.15.67-.66.66-1.37,0-2.74,0-4.11,0-.57,0-.69-.22-.67-.73C163.11,49,163.09,48.23,163.09,47.29Z"/><path class="cls-3" d="M135,56.75l.57-1.07a4.49,4.49,0,0,1,4.39-2.32c.44,0,.64.18.63.64,0,1.61,0,3.23,0,4.84,0,.47-.18.62-.62.65a6.15,6.15,0,0,0-1.13.16,4.45,4.45,0,0,0-3.51,4.23c-.25,2.84-.08,5.68-.11,8.53,0,2.09,0,2.09-2.12,2.09-1,0-2,0-3,0-.49,0-.67-.17-.67-.67q0-9.51,0-19c0-.53.21-.65.68-.64q2.06,0,4.11,0c.49,0,.7.13.67.64s0,1.26,0,1.89Z"/><path class="cls-4" d="M20.74,47.66c0-3.47,0-6.94,0-10.41s0-6.89,0-10.33c0-.67.19-.91.88-.89,1.72,0,3.45,0,5.17,0,.6,0,.81.18.81.8q0,10.49,0,21c0,.6-.18.8-.8.79-1.72,0-3.45-.06-5.17,0C20.86,48.64,20.74,48.34,20.74,47.66Z"/><path class="cls-4" d="M27.6,73c0,.7-.16,1-.91.94-1.7,0-3.4,0-5.09,0-.62,0-.86-.15-.86-.82q0-10.47,0-20.94c0-.58.14-.83.77-.81,1.75,0,3.51,0,5.26,0,.69,0,.82.26.82.87,0,3.48,0,6.95,0,10.43S27.57,69.53,27.6,73Z"/><path class="cls-4" d="M30.27,47.69q0-10.35,0-20.68c0-.74.19-1,1-1,1.66.05,3.34.05,5,0,.68,0,.89.21.88.88,0,4.63,0,9.25,0,13.87,0,.84.23,1.07,1.06,1.06,3.51-.05,7,0,10.52,0,.77,0,1-.19,1-1,0-4.59,0-9.19,0-13.78,0-.77.17-1.07,1-1,1.7.06,3.4,0,5.1,0,.56,0,.77.17.77.75q0,10.55,0,21.09c0,.69-.32.73-.85.73H43.42c-4.08,0-8.16,0-12.24,0C30.45,48.62,30.27,48.4,30.27,47.69Z"/><path class="cls-4" d="M56.52,52.25q0,10.38,0,20.76c0,.67-.17.92-.87.9q-2.51-.07-5,0c-.73,0-1-.17-1-1,0-4.59,0-9.19,0-13.79,0-1.05,0-1.05-1.08-1.05-3.48,0-7,0-10.44,0-.82,0-1.07.2-1.06,1,0,4.6,0,9.2,0,13.79,0,.73-.17,1-1,1-1.72-.06-3.45,0-5.17,0-.53,0-.72-.15-.72-.69q0-10.59,0-21.18c0-.66.33-.69.82-.69H43.42c4,0,8.11,0,12.16,0C56.29,51.33,56.53,51.51,56.52,52.25Z"/><path class="cls-4" d="M66,52q0,10.59,0,21.18c0,.55-.22.69-.74.68-1.77,0-3.56,0-5.34,0-.65,0-.76-.25-.76-.82,0-3.51,0-7,0-10.51s0-6.84,0-10.26c0-.72.15-1,.94-1,1.72.06,3.45,0,5.17,0C65.84,51.33,66,51.5,66,52Z"/><path class="cls-4" d="M66,47.81c0,.59-.16.81-.79.8-1.75,0-3.5,0-5.25,0-.69,0-.8-.26-.8-.86,0-3.5,0-7,0-10.49s0-6.89,0-10.33c0-.67.16-.92.86-.9,1.73,0,3.45,0,5.17,0,.61,0,.82.18.81.79Q66,37.32,66,47.81Z"/><path class="cls-3" d="M56.52,47.87c0,.69-.32.73-.85.73H43.42c-4.08,0-8.16,0-12.24,0-.73,0-.91-.21-.91-.92q0-10.35,0-20.68c0-.74.19-1,1-1,1.66.05,3.34.05,5,0,.68,0,.89.21.88.88,0,4.63,0,9.25,0,13.87,0,.84.23,1.07,1.06,1.06,3.51-.05,7,0,10.52,0,.77,0,1-.19,1-1,0-4.59,0-9.19,0-13.78,0-.77.17-1.07,1-1,1.7.06,3.4,0,5.1,0,.56,0,.77.17.77.75Q56.49,37.33,56.52,47.87Z"/><path class="cls-3" d="M56.52,73c0,.67-.17.92-.87.9q-2.51-.07-5,0c-.73,0-1-.17-1-1,0-4.59,0-9.19,0-13.79,0-1.05,0-1.05-1.08-1.05-3.48,0-7,0-10.44,0-.82,0-1.07.2-1.06,1,0,4.6,0,9.2,0,13.79,0,.73-.17,1-1,1-1.72-.06-3.45,0-5.17,0-.53,0-.72-.15-.72-.69q0-10.59,0-21.18c0-.66.33-.69.82-.69H43.42c4,0,8.11,0,12.16,0,.71,0,1,.18.94.92Q56.49,62.63,56.52,73Z"/><path class="cls-3" d="M27.6,47.82c0,.6-.18.8-.8.79-1.72,0-3.45-.06-5.17,0-.77,0-.89-.27-.89-1,0-3.47,0-6.94,0-10.41s0-6.89,0-10.33c0-.67.19-.91.88-.89,1.72,0,3.45,0,5.17,0,.6,0,.81.18.81.8Q27.57,37.32,27.6,47.82Z"/><path class="cls-3" d="M66,47.81c0,.59-.16.81-.79.8-1.75,0-3.5,0-5.25,0-.69,0-.8-.26-.8-.86,0-3.5,0-7,0-10.49s0-6.89,0-10.33c0-.67.16-.92.86-.9,1.73,0,3.45,0,5.17,0,.61,0,.82.18.81.79Q66,37.32,66,47.81Z"/><path class="cls-3" d="M27.6,73c0,.7-.16,1-.91.94-1.7,0-3.4,0-5.09,0-.62,0-.86-.15-.86-.82q0-10.47,0-20.94c0-.58.14-.83.77-.81,1.75,0,3.51,0,5.26,0,.69,0,.82.26.82.87,0,3.48,0,6.95,0,10.43S27.57,69.53,27.6,73Z"/><path class="cls-3" d="M66,73.22c0,.55-.22.69-.74.68-1.77,0-3.56,0-5.34,0-.65,0-.76-.25-.76-.82,0-3.51,0-7,0-10.51s0-6.84,0-10.26c0-.72.15-1,.94-1,1.72.06,3.45,0,5.17,0,.53,0,.73.16.73.7Q66,62.63,66,73.22Z"/></g></g></g></svg>