<svg xmlns="http://www.w3.org/2000/svg" viewBox="0 0 31.95 36.97"><defs><style>.cls-1{fill:#ff4242;}</style></defs><g id="Layer_2" data-name="Layer 2"><g id="Layer_1-2" data-name="Layer 1"><path class="cls-1" d="M15.91,37C13.85,37,8.44,34.27,4.65,30A16.53,16.53,0,0,1,.1,17c.68-6.16,1-8.94,1.11-10.18A2,2,0,0,1,2.52,5.13l13.24-5a2,2,0,0,1,1.48,0l12.44,5A2,2,0,0,1,31,6.86C31,8,31.28,11,31.9,17.48h0A16.76,16.76,0,0,1,27.23,30.4C23.19,34.77,17.79,37,15.91,37Zm.57-35.35-.15,0-13.24,5A.41.41,0,0,0,2.82,7c-.14,1.24-.43,4-1.12,10.19A15.12,15.12,0,0,0,5.86,29c3.77,4.22,8.75,6.4,10.05,6.4S22.17,33.49,26,29.3a15,15,0,0,0,4.25-11.68c-.62-6.53-.86-9.47-.95-10.64a.4.4,0,0,0-.26-.36l-12.44-5A.45.45,0,0,0,16.48,1.62Z"/><path class="cls-1" d="M22.16,27.29a.83.83,0,0,1-.48-.15L16,23l-5.71,4.14A.81.81,0,0,1,9,26.22l2.18-6.67L5.5,15.44A.81.81,0,0,1,6,14h7l2.18-6.7a.81.81,0,0,1,1.54,0L18.92,14H26a.82.82,0,0,1,.77.56.84.84,0,0,1-.3.91l-5.7,4.11,2.18,6.69a.81.81,0,0,1-.77,1.05ZM16,21.18a.82.82,0,0,1,.47.15l4.17,3L19,19.49a.82.82,0,0,1,.29-.91l4.15-3H18.34a.82.82,0,0,1-.77-.56L16,10.13,14.38,15a.8.8,0,0,1-.76.56H8.48l4.15,3a.84.84,0,0,1,.3.91l-1.59,4.87,4.16-3A.83.83,0,0,1,16,21.18Z"/></g></g></svg>