<svg xmlns="http://www.w3.org/2000/svg" viewBox="0 0 27.89 27.89"><defs><style>.cls-1{fill:#fff;}</style></defs><g id="Layer_2" data-name="Layer 2"><g id="Layer_1-2" data-name="Layer 1"><path class="cls-1" d="M14,27.89A13.95,13.95,0,1,1,27.89,14,14,14,0,0,1,14,27.89ZM14,1.06A12.89,12.89,0,1,0,26.83,14,12.9,12.9,0,0,0,14,1.06Z"/><path class="cls-1" d="M13.94,7.91c2,0,2.2,0,3,0a4,4,0,0,1,1.36.25,2.42,2.42,0,0,1,1.4,1.4A4,4,0,0,1,19.93,11c0,.78.05,1,.05,3s0,2.2-.05,3a4,4,0,0,1-.25,1.36,2.42,2.42,0,0,1-1.4,1.4,4,4,0,0,1-1.36.25c-.78,0-1,.05-3,.05s-2.19,0-3-.05a4,4,0,0,1-1.36-.25,2.42,2.42,0,0,1-1.4-1.4A4,4,0,0,1,8,16.92c0-.78,0-1,0-3s0-2.19,0-3a4,4,0,0,1,.25-1.36,2.42,2.42,0,0,1,1.4-1.4A4,4,0,0,1,11,8c.78,0,1,0,3,0m0-1.32c-2,0-2.24,0-3,0A5.5,5.5,0,0,0,9.13,7,3.75,3.75,0,0,0,7,9.13a5.5,5.5,0,0,0-.34,1.78c0,.79,0,1,0,3s0,2.25,0,3A5.5,5.5,0,0,0,7,18.76a3.6,3.6,0,0,0,.85,1.31,3.45,3.45,0,0,0,1.31.84,5.22,5.22,0,0,0,1.78.35c.79,0,1,0,3,0s2.25,0,3,0a5.22,5.22,0,0,0,1.78-.35,3.64,3.64,0,0,0,2.15-2.15A5.22,5.22,0,0,0,21.26,17c0-.79,0-1,0-3s0-2.24,0-3a5.22,5.22,0,0,0-.35-1.78,3.45,3.45,0,0,0-.84-1.31A3.6,3.6,0,0,0,18.76,7,5.5,5.5,0,0,0,17,6.63c-.79,0-1,0-3,0"/><path class="cls-1" d="M13.94,10.17a3.78,3.78,0,1,0,3.78,3.77,3.77,3.77,0,0,0-3.78-3.77m0,6.23a2.46,2.46,0,1,1,2.46-2.46,2.46,2.46,0,0,1-2.46,2.46"/><path class="cls-1" d="M18.75,10a.88.88,0,1,1-.88-.88.87.87,0,0,1,.88.88"/></g></g></svg>