<svg xmlns="http://www.w3.org/2000/svg" viewBox="0 0 27.89 27.89"><defs><style>.cls-1{fill:#fff;}</style></defs><g id="Layer_2" data-name="Layer 2"><g id="Layer_1-2" data-name="Layer 1"><path class="cls-1" d="M14,27.89A13.95,13.95,0,1,1,27.89,14,14,14,0,0,1,14,27.89ZM14,1.06A12.89,12.89,0,1,0,26.83,14,12.9,12.9,0,0,0,14,1.06Z"/><path class="cls-1" d="M15.62,13.6H10.2v1.55h3.65a3.58,3.58,0,0,1-3.55,3,4.26,4.26,0,1,1,2.89-7.37l1.2-1a5.83,5.83,0,1,0-4.09,10,5.27,5.27,0,0,0,5.32-5.57Z"/><polygon class="cls-1" points="23.41 13.66 21.18 13.66 21.18 11.42 19.75 11.42 19.75 13.66 17.51 13.66 17.51 15.09 19.75 15.09 19.75 17.32 21.18 17.32 21.18 15.09 23.41 15.09 23.41 13.66"/></g></g></svg>