<svg xmlns="http://www.w3.org/2000/svg" viewBox="0 0 85.94 104.96"><defs><style>.cls-1{fill:#47abd8;}</style></defs><g id="Layer_2" data-name="Layer 2"><g id="Layer_1-2" data-name="Layer 1"><path class="cls-1" d="M74.15,31.29c-.08-2.28,0-4.59-.32-6.86-.72-5.67-1.62-11.32-2.4-17A7.71,7.71,0,0,0,63.87.53C56.9.34,49.94.18,43,0,36,.18,29.05.34,22.08.53a7.61,7.61,0,0,0-7.5,6.59c-.54,3.45-1,6.91-1.49,10.37-.38,2.63-.92,5.27-1.06,7.91-.33,6.41-.45,12.84-.64,19.25a1.27,1.27,0,0,0,.38.88q5.28,4.9,10.6,9.77a3.74,3.74,0,0,1,1.2,2.18q1.74,9,3.5,17.93c.29,1.49.3,1.49,1.81,1.49H57.06c.32,0,.65-.07,1-.07s.62-.18.71-.64c1.19-6.23,2.42-12.46,3.63-18.69a3.78,3.78,0,0,1,1.21-2.19c3.51-3.21,7-6.44,10.52-9.65a1.35,1.35,0,0,0,.48-1.12C74.42,40.12,74.3,35.71,74.15,31.29ZM57.89,76.43H28.07c-.17-1.16-.34-2.32-.51-3.52H58.38C58.21,74.11,58.05,75.26,57.89,76.43Zm.77-5.57c0,.12-.32.25-.49.26-1.05,0-2.09,0-3.14,0q-13.5,0-27,0c-.55,0-.8-.11-.84-.72-.06-.94-.25-1.86-.39-2.88H59.13C59,68.68,58.84,69.77,58.66,70.86Zm.73-5.12H26.56c-.17-1.14-.33-2.3-.51-3.5H59.89C59.72,63.43,59.56,64.56,59.39,65.74Zm.76-5.35H25.8c-.11-.72-.2-1.4-.3-2.18a48.72,48.72,0,0,1,5.62-.7q11.86-.1,23.71,0a48.72,48.72,0,0,1,5.62.7C60.34,59,60.25,59.68,60.15,60.39Zm10.9-17.84c0,.22,0,.43,0,.55a445.44,445.44,0,0,0-56.13,0V42.5c0-4.19,0-8.39,0-12.58a4.29,4.29,0,0,1,4.51-4.53H66.52a4.3,4.3,0,0,1,4.53,4.52Z"/><path class="cls-1" d="M79,75.14c-5.53.79-11.06,1.57-16.59,2.38a54,54,0,0,1-8.53.71c-7.84-.07-15.68,0-23.53,0a15.4,15.4,0,0,1-2.15,0c-5.26-.74-10.51-1.51-15.76-2.26l-5.67-.81c0,.1-.08.14-.08.17,0,.7,0,1.4.07,2.1A88.31,88.31,0,0,0,8.65,92.91a3.57,3.57,0,0,0,4,3.18h61a3.43,3.43,0,0,0,3.57-2.83A78.66,78.66,0,0,0,79,80.3c.11-1.7.16-3.4.25-5.12A.81.81,0,0,0,79,75.14ZM56.51,90.55H29.42v-5H56.51Z"/><path class="cls-1" d="M26.81,76.32c-1.93-4.51-3.83-9-5.83-13.51a8,8,0,0,0-1.88-2.55c-2.45-2.21-5-4.32-7.48-6.47-.15-.14-.33-.26-.57-.45C7.71,59.78,6.76,66.65,6.67,73.78l20.25,2.9A3.45,3.45,0,0,0,26.81,76.32ZM20.63,74,10.39,72.22A1.44,1.44,0,0,1,9,70.67c0-.76,0-1.53,0-2.29s0-1.49,0-2.23a1.68,1.68,0,0,1,2.2-1.78,14.36,14.36,0,0,1,5.13,2,21,21,0,0,1,2.7,1.84,4.37,4.37,0,0,1,1.2,1.65c.44,1.09.7,2.24,1,3.37C21.5,74,21.36,74.08,20.63,74Z"/><path class="cls-1" d="M74.81,53.41c-.13.1-.27.19-.4.3-2.58,2.23-5.2,4.41-7.72,6.7a8,8,0,0,0-1.8,2.53c-1.35,3-2.6,6-3.88,9-.67,1.54-1.33,3.08-2,4.74L79.2,73.79C79.89,68.72,77.23,56.39,74.81,53.41Zm2.11,13.45c0,.5,0,1,0,1.5,0,.77,0,1.53,0,2.3a1.4,1.4,0,0,1-1.29,1.54L65.18,74c-.57.1-.72-.06-.55-.65.35-1.19.67-2.39,1.09-3.56a3,3,0,0,1,.84-1.29,20.62,20.62,0,0,1,7.38-4C75.87,64,77.11,64.49,76.92,66.86Z"/><path class="cls-1" d="M7.86,36.48v5.69a1.84,1.84,0,0,1-1.93,2.07c-1.41,0-2.83,0-4.25,0A1.57,1.57,0,0,1,0,42.44q.27-5.85.55-11.7c0-1.08.49-1.49,1.55-1.5H6.42c1,0,1.44.42,1.44,1.48Z"/><path class="cls-1" d="M85.67,36.76c.09,1.88.19,3.75.27,5.62a1.6,1.6,0,0,1-1.75,1.87c-1.37,0-2.75,0-4.12,0a1.85,1.85,0,0,1-2-2.08V30.64c0-1,.41-1.39,1.38-1.4h4.38c1,0,1.49.42,1.54,1.44C85.49,32.71,85.57,34.74,85.67,36.76Z"/><path class="cls-1" d="M65.81,97.4H68c1.73,0,3.45-.05,5.18,0A5,5,0,0,0,78,94.88a4.37,4.37,0,0,1,.07.49c0,2.62,0,5.23,0,7.85A1.6,1.6,0,0,1,76.32,105c-2.92,0-5.85,0-8.77,0a1.56,1.56,0,0,1-1.73-1.5C65.78,101.47,65.81,99.49,65.81,97.4Z"/><path class="cls-1" d="M7.85,95A5.52,5.52,0,0,0,13,97.41c2.09-.07,4.19,0,6.29,0h.77c0,.25,0,.46,0,.67,0,1.66,0,3.32,0,5A1.67,1.67,0,0,1,18.22,105H9.7a1.64,1.64,0,0,1-1.85-1.85Z"/><path class="cls-1" d="M76,49.3c0-1,0-1.85,0-2.67a.75.75,0,0,1,.34-.52c.65-.3,1.33-.54,2-.8a.87.87,0,0,1,.31-.07l3.55.33s.06,0,.13.11Z"/><path class="cls-1" d="M10,49.27,3.5,45.6c.4,0,.62,0,.84-.05,1-.09,1.94-.21,2.91-.27a1.81,1.81,0,0,1,.74.17c.66.26,1.56.39,1.9.88s.06,1.35.06,2C9.94,48.63,10,48.88,10,49.27Z"/></g></g></svg>