<svg xmlns="http://www.w3.org/2000/svg" viewBox="0 0 91.34 105.69"><defs><style>.cls-1{fill:#47abd8;}</style></defs><g id="Layer_2" data-name="Layer 2"><g id="Layer_1-2" data-name="Layer 1"><path class="cls-1" d="M45.47,105.69c-5.89,0-21.34-7.72-32.17-19.81C3.31,74.72-1.2,61.82.27,48.59,2.23,31,3.08,23.05,3.45,19.5a5.8,5.8,0,0,1,3.74-4.84L45.05.38a5.8,5.8,0,0,1,4.22,0l35.57,14.2a5.8,5.8,0,0,1,3.65,5c.25,3.34.93,11.72,2.69,30.36v0c1.09,13.49-3.53,26.25-13.36,36.91C66.29,99.41,50.86,105.69,45.47,105.69ZM47.11,4.62a1.31,1.31,0,0,0-.43.08L8.82,19a1.2,1.2,0,0,0-.77,1c-.37,3.56-1.23,11.5-3.19,29.12-1.66,15,5.54,26.62,11.89,33.7,10.78,12,25,18.27,28.72,18.27s17.91-5.32,29-17.31c9.06-9.81,13.15-21,12.15-33.38-1.76-18.67-2.45-27.08-2.7-30.44a1.18,1.18,0,0,0-.76-1L47.56,4.71A1.17,1.17,0,0,0,47.11,4.62Z"/><path class="cls-1" d="M63.34,78A2.28,2.28,0,0,1,62,77.58L45.67,65.71,29.36,77.55A2.31,2.31,0,0,1,25.81,75L32,55.89,15.73,44.13a2.32,2.32,0,0,1,1.36-4.19H37.25l6.23-19.17a2.31,2.31,0,0,1,4.39,0L54.1,39.94H74.26a2.31,2.31,0,0,1,1.35,4.19L59.31,55.88,65.54,75a2.31,2.31,0,0,1-.84,2.58A2.28,2.28,0,0,1,63.34,78Z"/></g></g></svg>