<svg xmlns="http://www.w3.org/2000/svg" viewBox="0 0 36.97 36.97"><defs><style>.cls-1{fill:#ff4242;}</style></defs><g id="Layer_2" data-name="Layer 2"><g id="Layer_1-2" data-name="Layer 1"><path class="cls-1" d="M18.49,37a4,4,0,0,1-4-3.75,15.18,15.18,0,0,1-3.56-1.49,4,4,0,0,1-6.67-3,4,4,0,0,1,1-2.65A14.57,14.57,0,0,1,3.76,22.5a4,4,0,0,1,0-8,14.73,14.73,0,0,1,1.48-3.56,4,4,0,0,1-1-2.65,4,4,0,0,1,4-4,4,4,0,0,1,2.65,1,14.73,14.73,0,0,1,3.56-1.48,4,4,0,0,1,8,0,14.57,14.57,0,0,1,3.56,1.48,4,4,0,0,1,2.65-1,4,4,0,0,1,3,6.67,15.18,15.18,0,0,1,1.49,3.56,4,4,0,0,1,0,8,15,15,0,0,1-1.49,3.56,4,4,0,0,1-5.67,5.67,15,15,0,0,1-3.56,1.49A4,4,0,0,1,18.49,37Zm-7.73-7.08a.75.75,0,0,1,.43.13,13.6,13.6,0,0,0,4.3,1.78.8.8,0,0,1,.62.88s0,.08,0,.12a1.25,1.25,0,0,0,0,.15,2.41,2.41,0,0,0,4.81,0,1.25,1.25,0,0,0,0-.15s0-.08,0-.12a.8.8,0,0,1,.62-.88A13.6,13.6,0,0,0,25.78,30a.8.8,0,0,1,1.06.18l.08.09a.42.42,0,0,0,.1.12A2.4,2.4,0,1,0,30.41,27l-.12-.09-.09-.08A.8.8,0,0,1,30,25.78a13.6,13.6,0,0,0,1.78-4.3.8.8,0,0,1,.88-.62h.12l.15,0a2.41,2.41,0,0,0,0-4.81l-.15,0h-.12a.8.8,0,0,1-.88-.62A13.6,13.6,0,0,0,30,11.19a.8.8,0,0,1,.18-1.06l.09-.08.13-.09a2.41,2.41,0,0,0,0-3.4,2.38,2.38,0,0,0-3.39,0,.42.42,0,0,0-.1.12l-.08.09A.79.79,0,0,1,25.78,7a13.6,13.6,0,0,0-4.3-1.78.8.8,0,0,1-.62-.88s0-.08,0-.12a1.25,1.25,0,0,0,0-.15,2.41,2.41,0,0,0-4.81,0,1.25,1.25,0,0,0,0,.15s0,.08,0,.12a.8.8,0,0,1-.62.88A13.6,13.6,0,0,0,11.19,7a.79.79,0,0,1-1.06-.18l-.08-.09L10,6.56a2.38,2.38,0,0,0-1.7-.71A2.42,2.42,0,0,0,5.85,8.26,2.38,2.38,0,0,0,6.56,10l.12.09.09.08A.79.79,0,0,1,7,11.19a13.6,13.6,0,0,0-1.78,4.3.8.8,0,0,1-.88.62H4.17l-.15,0a2.41,2.41,0,0,0,0,4.81l.15,0h.12a.8.8,0,0,1,.88.62A13.6,13.6,0,0,0,7,25.78a.79.79,0,0,1-.18,1.06l-.09.08a.42.42,0,0,0-.12.1,2.38,2.38,0,0,0,0,3.39,2.4,2.4,0,0,0,3.4,0l.09-.12.08-.09A.81.81,0,0,1,10.76,29.89Zm7.73-1a10.41,10.41,0,1,1,10.4-10.4A10.42,10.42,0,0,1,18.49,28.89Zm0-19.19a8.79,8.79,0,1,0,8.79,8.79A8.8,8.8,0,0,0,18.49,9.7Z"/></g></g></svg>