<svg xmlns="http://www.w3.org/2000/svg" viewBox="0 0 88.55 96.66"><defs><style>.cls-1{opacity:0.5;}.cls-2{fill:#8e8e8e;}.cls-3{fill:silver;}.cls-4{fill:#818181;}.cls-5{fill:#fefefe;}</style></defs><g id="Layer_2" data-name="Layer 2"><g id="Layer_1-2" data-name="Layer 1"><g class="cls-1"><path class="cls-2" d="M82.27,35.71c-.16-.25-.26,0-.34.06l-3.76,2.67Q70.37,44,62.55,49.55a.61.61,0,0,0-.29.84c.66,1.87,1.27,3.75,1.9,5.63,0,.14,0,.33.26.37,0,.27-.23.3-.39.38a44.2,44.2,0,0,1-4.34,1.94,68,68,0,0,1-11.43,3.35c-3.09.63-6.22,1.1-9.36,1.43-1.87.2-3.74.38-5.62.45a56.59,56.59,0,0,1-6.89-.23,39.33,39.33,0,0,1-4.05-.52c-.16,0-.36,0-.39-.27l1.41-4.46C24.2,55.74,25,53,25.89,50.29a.55.55,0,0,0-.23-.71L2.3,31.29c-.09-.08-.21-.13-.27-.25s.18-.08.26-.08h16.4c.11.23-.08.32-.2.43-.89.78-1.79,1.56-2.6,2.42-.33.35-.69.66-1,1a19.6,19.6,0,0,1,1.81-1.59c1.07-.8,2.14-1.59,3.25-2.33.13-.09.24-.19.41-.12a3.29,3.29,0,0,0,1,0H33c.49,0,.64-.11.81-.56l1.32-3.51c.39-1.08.79-2.16,1.21-3.24a.72.72,0,0,0,.05-.21,7.15,7.15,0,0,1,1-2.19c.52-1.23.95-2.49,1.42-3.75Q42,8.81,45.11.31c0-.1.09-.2.13-.31.17.09.17.25.22.38q3.13,8.37,6.25,16.75c.08.21.11.48.44.44.14.62.41,1.18.6,1.78.08.26.29.45.32.73a20.91,20.91,0,0,0,.86,2.45c.91,2.48,1.84,4.95,2.76,7.42,0,.12.09.23.13.35a.69.69,0,0,0,.69.46h23.9c.27,0,.54,0,.81,0s.2.2.24.35a8.9,8.9,0,0,1,.08,4.26C82.51,35.49,82.52,35.7,82.27,35.71Z"/><path class="cls-2" d="M64.65,57.43c.85,2.55,1.69,5.1,2.55,7.65q2.68,8,5.38,16.07c0,.14.09.28.13.43-.18,0-.27-.1-.37-.17L47.27,64.14c-.19-.13-.37-.3-.63-.26,0-.24.19-.23.33-.26,1.35-.32,2.69-.66,4-1A63,63,0,0,0,61,59c1.07-.51,2.13-1.05,3.19-1.58C64.36,57.38,64.5,57.26,64.65,57.43Z"/><path class="cls-3" d="M64.65,57.43a57.75,57.75,0,0,1-7.6,3.46,86.41,86.41,0,0,1-10,2.89c-.14,0-.3,0-.42.1L42,64.8a9.1,9.1,0,0,1-2.92.6c-1.92.27-3.86.42-5.8.55-2.62.18-5.24.15-7.86.12a34,34,0,0,1-3.77-.3.69.69,0,0,1-.48-.25,40.31,40.31,0,0,1-4.08-.81A22.34,22.34,0,0,1,7,59.31a14.93,14.93,0,0,1-4.41-8.87,13.08,13.08,0,0,1,2.66-9.71,26.6,26.6,0,0,1,3-3.5.38.38,0,0,1,.29-.17l-.31.44a22.61,22.61,0,0,0-3.28,6c-1.51,4.84-.36,9.11,2.94,12.86a16.71,16.71,0,0,0,5.47,3.89A33.28,33.28,0,0,0,22,62.92a39.69,39.69,0,0,0,4,.58,59.71,59.71,0,0,0,6.12.3,60.41,60.41,0,0,0,6.45-.45c2.95-.33,5.9-.74,8.82-1.31a64.91,64.91,0,0,0,16.51-5.39l.53-.26A76.68,76.68,0,0,0,75.55,49.5c1.06-.77,2.11-1.57,3.16-2.36.09-.07.17-.18.3-.19-.15.46-3.81,3.52-6.81,5.7A72.22,72.22,0,0,1,64.65,57.43Z"/><path class="cls-2" d="M7.84,95.94c.38-.73.77-1.46,1.15-2.2,1.46-2.8,2.93-5.6,4.38-8.4A.58.58,0,0,1,14,85c1.21,0,2.43,0,3.64,0,.33,0,.46.1.5.42.29,2.36.6,4.72.91,7.08.16,1.2.3,2.41.47,3.61,0,.25,0,.33-.28.32-1.14,0-2.28,0-3.42,0-.27,0-.34-.12-.34-.36s0-.57,0-.85-.1-.31-.32-.31c-.74,0-1.47,0-2.2,0a.34.34,0,0,0-.35.26c-.13.32-.28.64-.39,1a.41.41,0,0,1-.45.29c-3.8,0-7.61,0-11.41,0C0,96.4,0,96.25,0,96L1.91,85.8c.16-.84.16-.84,1-.84s2,0,3,0c.3,0,.38.07.32.39-.45,2.37-.88,4.75-1.33,7.12-.06.33,0,.42.34.42.9,0,1.79,0,2.68,0,.37,0,.41.13.35.44-.18.86-.33,1.72-.49,2.59Z"/><path class="cls-2" d="M21.14,65.52a58.09,58.09,0,0,0,9.23.37,82.87,82.87,0,0,0,11.34-1.06l.26,0-2.76,1.75L17,80.41c-.13.08-.24.21-.42.21a.92.92,0,0,1,.09-.47L21,66C21.07,65.84,21.1,65.68,21.14,65.52Z"/><path class="cls-3" d="M82.27,35.71a8.82,8.82,0,0,0,.11-4.18c0-.25-.12-.5-.17-.75-.21,0-.24-.19-.28-.35a10.36,10.36,0,0,0-3.33-4.91,18.64,18.64,0,0,0-8.17-4.12,49.36,49.36,0,0,0-8.1-1.49,41.41,41.41,0,0,0-5.57-.15,25.24,25.24,0,0,0-3.35.37c-.16,0-.33.07-.44-.1s-.22-.17-.27-.31c-.23-.6-.44-1.19-.68-1.78-.07-.18-.06-.3.13-.37A54.35,54.35,0,0,1,61.07,17a36.34,36.34,0,0,1,15.45,3.48,17,17,0,0,1,6.15,4.75,10.54,10.54,0,0,1,2.23,4.91c0,.22,0,.44,0,.67a3.76,3.76,0,0,1-.45,3.13,22.92,22.92,0,0,1-6,9A21.34,21.34,0,0,0,82.27,35.71Z"/><path class="cls-2" d="M28.48,90.69c.25-1.37.51-2.74.76-4.11.08-.43.16-.86.23-1.28,0-.24.14-.34.39-.34,1.13,0,2.25,0,3.38,0,.35,0,.43.11.36.44q-.72,3.82-1.42,7.67c-.19,1-.38,2-.55,3,0,.24-.14.34-.39.34-1.16,0-2.33,0-3.49,0a.45.45,0,0,1-.5-.37L25.44,91c0-.09,0-.2-.17-.27-.09.78-.2,1.55-.34,2.31-.18,1-.37,2-.54,3-.05.27-.15.37-.44.37q-1.71,0-3.42,0c-.33,0-.38-.11-.32-.42q1-5.34,2-10.67a.36.36,0,0,1,.42-.35c1.16,0,2.32,0,3.49,0a.42.42,0,0,1,.47.35C27.16,87.11,27.89,88.86,28.48,90.69Z"/><path class="cls-2" d="M41.49,85.16A38.1,38.1,0,0,0,36,85c-.27,0-.29.17-.33.37q-1,5.33-2,10.66c-.06.35,0,.41.35.41.7,0,1.39,0,2.36,0a18,18,0,0,0,4.09-.3,6.05,6.05,0,0,0,5.06-6.2A4.73,4.73,0,0,0,41.49,85.16ZM38.7,93c-.18,0-.25-.07-.21-.25.25-1.34.5-2.7.74-4,0-.2.16-.24.35-.24a1.83,1.83,0,0,1,1.85,2A2.55,2.55,0,0,1,38.7,93Z"/><path class="cls-2" d="M81.16,92.42c-.22,1.2-.46,2.4-.67,3.61,0,.27-.14.37-.42.37q-1.69,0-3.39,0c-.31,0-.36-.1-.31-.39q1-5.34,2-10.67a.39.39,0,0,1,.47-.38c1.63,0,3.27,0,4.9.05a6.26,6.26,0,0,1,2.13.46,3,3,0,0,1,2,3.38,3.31,3.31,0,0,1-2.5,3.07c-.26.08-.26.18-.18.4.47,1.23.91,2.46,1.39,3.68.13.34,0,.4-.28.4q-1.73,0-3.45,0a.41.41,0,0,1-.47-.35c-.31-1.08-.64-2.16-1-3.24l-.13-.39Z"/><path class="cls-2" d="M73.71,96.39c-.56,0-1.12,0-1.67,0-.28,0-.39-.1-.39-.36s0-.55,0-.82-.07-.34-.32-.34c-.73,0-1.46,0-2.2,0a.35.35,0,0,0-.36.25c-.13.34-.27.66-.4,1a.35.35,0,0,1-.39.26H64.12c-.38,0-.25-.17-.16-.36l3.48-6.65c.7-1.35,1.41-2.7,2.11-4.06a.54.54,0,0,1,.57-.36c1.24,0,2.48,0,3.71,0,.32,0,.44.09.48.41Q75,90.7,75.7,96c0,.31-.06.39-.35.38C74.8,96.38,74.25,96.39,73.71,96.39Z"/><path class="cls-2" d="M50.72,96.65A7.34,7.34,0,0,1,46,95.06c-.6-.45-.6-.45-.17-1.07s1-1.38,1.42-2.09c.16-.24.25-.27.45,0A4,4,0,0,0,50,93.31a1.4,1.4,0,0,0,.88-.07A.35.35,0,0,0,51,92.6a2.8,2.8,0,0,0-.82-.43,9,9,0,0,1-1.39-.7,3.36,3.36,0,0,1-1-4.77A3.94,3.94,0,0,1,50,85a6.43,6.43,0,0,1,5.77.89c.25.18.26.32.11.57-.42.7-.83,1.41-1.22,2.13-.15.3-.28.29-.51.09a4,4,0,0,0-1.32-.82,1.72,1.72,0,0,0-.84-.11.5.5,0,0,0-.44.35.46.46,0,0,0,.2.49,2.86,2.86,0,0,0,.7.41c.4.19.82.36,1.2.58a3.4,3.4,0,0,1,1.08,5.1,4.72,4.72,0,0,1-3.44,1.91Z"/><path class="cls-2" d="M57.34,88.43h-1c-.19,0-.24-.07-.21-.24l.57-3A.25.25,0,0,1,57,85h8.21c.52,0,.52,0,.43.49-.17.87-.34,1.73-.48,2.6-.05.29-.15.4-.45.39-.51,0-1,0-1.53,0-.35,0-.49.09-.55.45q-.63,3.48-1.28,7c-.1.53-.1.53-.66.53-1.07,0-2.13,0-3.2,0-.35,0-.41-.12-.35-.44.45-2.37.88-4.75,1.33-7.13.06-.31,0-.43-.33-.4s-.55,0-.82,0Z"/><path class="cls-3" d="M37.35,21.05c-.23.62-.46,1.24-.68,1.86a.58.58,0,0,1-.23.28c-.06.26-.3.28-.49.34-1.65.53-3.28,1.11-4.88,1.78a63,63,0,0,0-9.7,5.08,2.22,2.22,0,0,1-1.12.49,70.31,70.31,0,0,0-5.74,4.3,10.8,10.8,0,0,1,1.23-1.46c.92-1,1.94-1.87,3-2.76a55,55,0,0,1,4.87-3.45A67.39,67.39,0,0,1,37.17,21.1Z"/><path class="cls-4" d="M84.5,33.92A10,10,0,0,0,85,30.79c.08.19.25.17.41.17H88.1a.61.61,0,0,1,.45.09Z"/><path class="cls-5" d="M53,20a31.76,31.76,0,0,1,9.18-.31,40.33,40.33,0,0,1,12.34,2.9,15.2,15.2,0,0,1,6.73,5.66,7.44,7.44,0,0,1,1,2.5A.22.22,0,0,1,82,31h-.37q-12.07,0-24.16,0a.7.7,0,0,1-.78-.56c-1.21-3.31-2.46-6.62-3.69-9.93C52.91,20.34,52.76,20.17,53,20Z"/><path class="cls-5" d="M15.14,88.88c0,1,.08,2,.12,2.93,0,.28-.09.37-.36.36s-.52,0-.78,0-.27-.08-.19-.29C14.36,90.89,14.8,89.91,15.14,88.88Z"/><path class="cls-5" d="M82.15,90c-.56,0-.56,0-.47-.45s.19-.94.26-1.41c0-.28.17-.36.42-.33s.35,0,.52,0c.53.1.79.34.84.79a1.12,1.12,0,0,1-.64,1.18A2.44,2.44,0,0,1,82.15,90Z"/><path class="cls-5" d="M71.42,89c0,1,0,1.92,0,2.88,0,.24-.08.34-.32.34s-.54,0-.82,0-.27-.06-.18-.26a28.81,28.81,0,0,0,1.16-3Z"/></g></g></g></svg>