<svg xmlns="http://www.w3.org/2000/svg" viewBox="0 0 84.5 112.76"><defs><style>.cls-1{isolation:isolate;}.cls-2{fill:#47abd8;}.cls-3,.cls-4{fill:#fdb2b6;}.cls-4{mix-blend-mode:multiply;}.cls-5{fill:#719dfc;}.cls-6{fill:#fff;}</style></defs><g class="cls-1"><g id="Layer_2" data-name="Layer 2"><g id="Layer_1-2" data-name="Layer 1"><path class="cls-2" d="M69.36,69.68a115.82,115.82,0,0,1-19-7.62l-8.07.75-8.07-.75a115.82,115.82,0,0,1-19,7.62C3.33,73.37-1.31,88,.31,101.87c0,0,11.25,10.27,40.61,10.86v0h2.66v0c29.37-.59,40.61-10.86,40.61-10.86C85.81,88,81.18,73.37,69.36,69.68Z"/><path class="cls-3" d="M52.61,48.8l-9.94-1-10,1s1.66,9.45-1,16.74c0,0,3.31,4.14,10.94,4.14S53.6,65.54,53.6,65.54C51,58.25,52.61,48.8,52.61,48.8Z"/><path class="cls-4" d="M52.61,48.8l-9.94-1-10,1a43,43,0,0,1,.51,6.82A20.19,20.19,0,0,0,37.14,60c2,1.66,5.85,2,6.85,2s4.82-.38,6.85-2a14.93,14.93,0,0,0,1.38-1.27A43.83,43.83,0,0,1,52.61,48.8Z"/><path class="cls-3" d="M42.17,12.43c-10.07,0-16.66,8.16-16.66,18.23,0,7.55,3.71,18.43,9.81,23.4,2,1.65,5.85,2,6.85,2s4.81-.38,6.85-2c6.1-5,9.8-15.85,9.8-23.4C58.82,20.59,52.23,12.43,42.17,12.43Z"/><path class="cls-5" d="M53.85,17.19c0-3.22-5.23-5.84-11.68-5.84S30.49,14,30.49,17.19,35.72,23,42.17,23,53.85,20.42,53.85,17.19Z"/><path class="cls-5" d="M34.21,19.06s-8.33,3.66-8,18a30.3,30.3,0,0,1-1.48-11.58c.37-6.84,7.52-11.45,7.52-11.45Z"/><path class="cls-5" d="M50.12,19.06s8.34,3.66,8,18a30.17,30.17,0,0,0,1.49-11.58C59.19,18.68,52,14.07,52,14.07Z"/><path class="cls-5" d="M28.75,16.07S28.06,11.9,34,9c8.9-4.35,22.69.87,24.85,15.05C58.88,24,44.11,13.46,28.75,16.07Z"/><path class="cls-5" d="M31.6,14.07s-2-1.64-5.46,2-1.35,13.44-1.35,13.44,4.33-13.2,9.42-13.82-3.3-1.62-3.3-1.62"/><path class="cls-5" d="M52.52,14.07s2-1.64,5.47,2,1.35,13.44,1.35,13.44S55,16.31,49.91,15.69s3.31-1.62,3.31-1.62"/><path class="cls-2" d="M65,38.16c-.51,4.64-4.87,8-7.18,7.71s-1.73-4-1.22-8.63.75-8.42,3.07-8.17S65.52,33.52,65,38.16Z"/><path class="cls-6" d="M58.6,37.24c.41-3.77.65-7,2-7.91a2.83,2.83,0,0,0-.88-.26c-2.32-.25-2.56,3.53-3.07,8.17s-1.1,8.38,1.22,8.63a3.28,3.28,0,0,0,1.37-.18C57.61,44.85,58.14,41.4,58.6,37.24Z"/><path class="cls-2" d="M19.49,38.16c.51,4.64,4.87,8,7.19,7.71s1.72-4,1.21-8.63-.75-8.42-3.07-8.17S19,33.52,19.49,38.16Z"/><path class="cls-6" d="M27.89,37.24c-.51-4.64-.75-8.42-3.07-8.17a2.83,2.83,0,0,0-.88.26c1.31.93,1.55,4.14,2,7.91.46,4.16,1,7.61-.59,8.45a3.24,3.24,0,0,0,1.37.18C29,45.62,28.4,41.87,27.89,37.24Z"/><path class="cls-2" d="M61.35,32l-1.41-.46c0-.13,4.36-13.72-1.67-22C55.14,5.17,49.72,3,42.17,3s-13,2.19-16.11,6.5c-6,8.31-1.7,21.89-1.66,22L23,32c-.19-.58-4.59-14.44,1.88-23.35,3.43-4.72,9.25-7.12,17.31-7.12s13.88,2.4,17.31,7.12C66,17.52,61.54,31.38,61.35,32Z"/><path class="cls-5" d="M27.23,9.27A2.24,2.24,0,0,1,25.7,5.4C29.5,1.82,35,0,42.17,0c7,0,12.44,1.75,16.24,5.19a2.24,2.24,0,1,1-3,3.31c-2.95-2.67-7.4-4-13.23-4S31.71,5.88,28.77,8.66A2.25,2.25,0,0,1,27.23,9.27Z"/><path class="cls-2" d="M44,53.27v-1c7,0,12.24-1.8,15.07-5.21A9,9,0,0,0,61.22,42h1a9.9,9.9,0,0,1-2.39,5.7C57.72,50.25,53.26,53.27,44,53.27Z"/><path class="cls-2" d="M46.48,52.61c0,1.1-1.45,2-3.23,2s-3.24-.89-3.24-2,1.45-2,3.24-2S46.48,51.51,46.48,52.61Z"/><path class="cls-6" d="M76.48,96.26c-1.21,1.81-.1-6.81-.6-11.32a174.33,174.33,0,0,1-2.94,22.89c.77-.28,1.49-.56,2.17-.84a115.44,115.44,0,0,0,3.57-17.34S77.68,94.46,76.48,96.26ZM10,96.26c-1.2-1.8-2.2-6.61-2.2-6.61a119.43,119.43,0,0,0,3.81,18.21c.66.24,1.36.48,2.09.72a172.31,172.31,0,0,1-3.1-23.64C10.11,89.45,11.22,98.07,10,96.26Z"/></g></g></g></svg>