<svg xmlns="http://www.w3.org/2000/svg" viewBox="0 0 29.63 29.63"><defs><style>.cls-1{fill:#222221;}</style></defs><g id="Layer_2" data-name="Layer 2"><g id="Layer_1-2" data-name="Layer 1"><path class="cls-1" d="M14.82,29.63A14.82,14.82,0,1,1,29.63,14.82,14.84,14.84,0,0,1,14.82,29.63Zm0-28.51a13.7,13.7,0,1,0,13.69,13.7A13.72,13.72,0,0,0,14.82,1.12Z"/><path class="cls-1" d="M12.64,23.43h3.47V14.74h2.42l.26-2.91H16.11V10.18c0-.69.14-1,.8-1h1.88v-3h-2.4c-2.58,0-3.75,1.14-3.75,3.31v2.32h-1.8v2.95h1.8Z"/></g></g></svg>