<svg xmlns="http://www.w3.org/2000/svg" viewBox="0 0 36.97 28.98"><defs><style>.cls-1{fill:#ff4242;}</style></defs><g id="Layer_2" data-name="Layer 2"><g id="Layer_1-2" data-name="Layer 1"><path class="cls-1" d="M36.58,5.49a.8.8,0,0,0-.92.06L27,12.38,19.16.37a.8.8,0,0,0-1.35,0l-7.88,12L1.31,5.55a.8.8,0,0,0-.92-.06A.81.81,0,0,0,0,6.33L3.46,24.66C3.52,26,5.13,27.11,8.23,27.9A43.52,43.52,0,0,0,18.49,29,43.49,43.49,0,0,0,28.74,27.9c3.1-.79,4.71-1.88,4.78-3.24L37,6.33A.81.81,0,0,0,36.58,5.49ZM28.35,26.33a41.82,41.82,0,0,1-9.86,1,41.69,41.69,0,0,1-9.86-1c-2.91-.73-3.56-1.54-3.56-1.77s.65-1,3.56-1.77a42.27,42.27,0,0,1,9.86-1,42.4,42.4,0,0,1,9.86,1c2.9.74,3.55,1.55,3.55,1.77S31.25,25.6,28.35,26.33Zm3.9-3.71a11.47,11.47,0,0,0-3.51-1.39,43.49,43.49,0,0,0-10.25-1.08A43.52,43.52,0,0,0,8.23,21.23a11.69,11.69,0,0,0-3.51,1.39L2,8.16l7.62,6a.85.85,0,0,0,.63.17A.81.81,0,0,0,10.8,14L18.49,2.28,26.17,14a.81.81,0,0,0,.55.36.85.85,0,0,0,.63-.17l7.62-6Z"/></g></g></svg>