<svg xmlns="http://www.w3.org/2000/svg" viewBox="0 0 245.12 45.87"><defs><style>.cls-1{fill: #fff;}.cls-2,.cls-3{fill:#ff4242;}.cls-3{font-size:30px;font-family:Poppins-SemiBold, Poppins;font-weight:600;}</style></defs><g id="Layer_2" data-name="Layer 2"><g id="Layer_1-2" data-name="Layer 1"><path class="cls-1" d="M31.78,6.07,29.6,5.94a3.66,3.66,0,0,1-.67,0c-.64-.2-1,.12-1.39.58q-5.64,6.72-11.3,13.4l-.55.64-3-3.56-.06-.07c-.26-.32-.75-.65-.73-1s.47-.68.75-1c3.83-4.54,7.68-9,11.49-13.61A2.3,2.3,0,0,1,26.08.38C31.63.37,37.17.3,42.71.25c.49,0,1,0,1.56,0l-.84,1.06Q37.28,8.75,31.14,16.18c-.2.24-.13.37,0,.56l5.5,6.5L41.56,29a.35.35,0,0,1,0,.53c-1,1.43-2,2.88-3.06,4.33-.17.25-.25.3-.47,0L24.85,18.3c-.47-.56-.93-1.13-1.43-1.67a.43.43,0,0,1,0-.68C26,13,28.48,10,31,7,31.25,6.72,31.48,6.42,31.78,6.07Z"/><path class="cls-2" d="M33.42,34.4H15.72a.73.73,0,0,1-.65-.31Q7.63,25.27.16,16.47c-.17-.2-.24-.33,0-.58Q6.76,8.09,13.35.28A.56.56,0,0,1,13.81,0h7.53l-.47.55q-6.35,7.5-12.71,15c-.27.33-.23.48,0,.77q5.57,6.56,11.11,13.12c.12.15.22.3.46.27,1.11-.11,2.22-.2,3.33-.3,0-.19-.11-.27-.2-.37-1.64-1.95-3.29-3.91-4.95-5.85-.22-.26-.27-.42,0-.7.84-.95,1.65-1.92,2.45-2.89.21-.25.31-.25.53,0q6.2,7.32,12.4,14.61C33.34,34.26,33.43,34.32,33.42,34.4Z"/><text class="cls-3" transform="translate(46.04 28.08)">CARGO<tspan class="cls-1" x="110.34" y="0">PRIME</tspan></text></g></g></svg>