<svg xmlns="http://www.w3.org/2000/svg" viewBox="0 0 193.35 59.38"><defs><style>.cls-1{opacity:0.5;}.cls-2{fill:#4f4f4f;}.cls-3{fill:#727272;}.cls-4{fill:#bcbcbc;}.cls-5{fill:#fff;}.cls-6{fill:#fefefe;}</style></defs><g id="Layer_2" data-name="Layer 2"><g id="Layer_1-2" data-name="Layer 1"><g class="cls-1"><path class="cls-2" d="M112.23,57.27l-.56,0H99.44c-.5,0-.51,0-.51-.51V54.17a.91.91,0,0,0-.07-.53c-.2,0-.27.24-.37.38a13,13,0,0,1-11.6,5.33A17.63,17.63,0,0,1,76.21,55a20.42,20.42,0,0,1-6-9.22,22.12,22.12,0,0,1-.83-3.58c-.06-.45-.06-.45-.5-.46H43.54c-.86,0-.76,0-.7.73a7.87,7.87,0,0,0,6.58,7,10.71,10.71,0,0,0,3.66-.17A5.13,5.13,0,0,0,56,47.54a9.19,9.19,0,0,0,.74-.91.84.84,0,0,1,.8-.41c3.56,0,7.13,0,10.69,0h1.28c.15,0,.31,0,.44.06a.31.31,0,0,1,0,.25A21,21,0,0,1,63.8,55a18.74,18.74,0,0,1-8.65,3.82,24.72,24.72,0,0,1-7.08.29,20.12,20.12,0,0,1-14.34-7.74A19.16,19.16,0,0,1,30,42.68a23,23,0,0,1,.25-8.94l0-.15c.06-.33.05-.35-.29-.36H15.84c-.67,0-.63,0-.63.65V56.53c0,.84.09.76-.77.76H.63c-.63,0-.63,0-.63-.6V.59A2.09,2.09,0,0,0,0,.34C0,.1.09,0,.33,0H33.12c.71,0,.7-.12.7.68v11.4c0,.8,0,.69-.71.69H15.72c-.5,0-.51,0-.51.51v7.06c0,.59,0,.59.6.59H31.66c.57,0,.58,0,.58.56v6.19a1,1,0,0,0,0,.49c.12,0,.15-.07.19-.13A18.68,18.68,0,0,1,45,19.29a23.78,23.78,0,0,1,13.79.85,17.85,17.85,0,0,1,9.92,9.11A23.78,23.78,0,0,1,70,32.52c.12.06.14,0,.18-.1a19.93,19.93,0,0,1,5.32-8.67,17.43,17.43,0,0,1,11.1-4.85,18,18,0,0,1,5.48.43A12.39,12.39,0,0,1,98.41,23l.33.33.12,0a1.13,1.13,0,0,0,.07-.63V.72c0-.13,0-.27,0-.4S99,0,99.23,0h13a.53.53,0,0,1,.15.47c0,.15,0,.3,0,.46q0,27.69,0,55.39C112.38,56.66,112.48,57,112.23,57.27Z"/><path class="cls-3" d="M144.25,21.18c0-.11,0-.21.12-.23h16.21a1.13,1.13,0,0,1,.93.41c2.38,2.65,4.78,5.28,7.17,7.92.48.53.44.5.9,0,2.27-2.6,4.55-5.21,6.81-7.82a1.24,1.24,0,0,1,1.05-.48h15a1.49,1.49,0,0,1,.62.06.87.87,0,0,1-.27.44l-7.77,8.75q-3.78,4.26-7.57,8.53c-.28.31-.28.32,0,.66,1.35,1.52,2.71,3,4.06,4.54l10.69,12c.32.37.65.73,1,1.1.06.06.13.12.1.24s-.31,0-.48,0h-16a1.06,1.06,0,0,1-.88-.39c-2.39-2.71-4.8-5.4-7.2-8.1-.37-.42-.37-.42-.73,0l-3.38,3.84c-1.25,1.42-2.51,2.83-3.75,4.26a1.07,1.07,0,0,1-.92.41q-8,0-16,0H113c-.21,0-.41,0-.62,0a1.14,1.14,0,0,1,0-.55V.57a1.15,1.15,0,0,1,0-.55L113,0h30.27c.86,0,.8-.1.8.8V12c0,.82,0,.74-.76.74H126.49c-.73,0-.72-.08-.72.73v7c0,.25.1.38.36.38s.34,0,.52,0h16.61c.89,0,.81,0,.81.8V32.53a2.8,2.8,0,0,1,0,.71c-.09.21-.29.22-.47.24s-.58,0-.87,0H126.88c-.65,0-.88.23-.88.87q0,4.5,0,9c0,.62.23.83.84.86.22,0,.44,0,.66,0h15.55a1.82,1.82,0,0,1,1,.15c.17.21.1.45.1.69,0,3.25,0,6.51,0,9.76a3.64,3.64,0,0,0,.25,1.39c.2.11.29,0,.38-.16,1.64-1.93,3.36-3.8,5-5.7q2.25-2.53,4.52-5.06c1.66-1.85,3.3-3.72,5-5.57.54-.6.5-.69,0-1.27q-2.26-2.56-4.54-5.11l-3.55-4-3.7-4.16c-.92-1.05-1.84-2.09-2.79-3.12A1.79,1.79,0,0,1,144.25,21.18Z"/><path class="cls-3" d="M112.33,0V57.27h-.1V0Z"/><path class="cls-4" d="M70.16,32.42c0,.09,0,.18-.11.2s-.07,0-.07-.1Z"/><path class="cls-5" d="M82.8,39.2A13.39,13.39,0,0,1,84,33.65a8.15,8.15,0,0,1,2.92-3.47,7.43,7.43,0,0,1,8.71.64,7.79,7.79,0,0,1,2,3.14,14.26,14.26,0,0,1,.18,9.56,7.58,7.58,0,0,1-2.18,3.35,7.07,7.07,0,0,1-5.57,1.66,7.38,7.38,0,0,1-5.85-4A10.62,10.62,0,0,1,82.8,39.2Z"/><path class="cls-5" d="M50.4,33.38H43.85c-.64,0-.65,0-.46-.62a7.94,7.94,0,0,1,1.71-3,7.14,7.14,0,0,1,6.49-2.26,6.78,6.78,0,0,1,4.1,2A7.37,7.37,0,0,1,57.55,33c.09.34.05.38-.3.4H50.4Z"/><path class="cls-6" d="M144.05,44.49a1.3,1.3,0,0,1,.1.75q0,5.53,0,11.07a1.57,1.57,0,0,0,.08.75c-.06.06-.14,0-.15,0a4.35,4.35,0,0,1,0-.51V45.21C144.07,45,144.05,44.73,144.05,44.49Z"/></g></g></g></svg>