<svg xmlns="http://www.w3.org/2000/svg" viewBox="0 0 36.97 22.15"><defs><style>.cls-1{fill:#47abd8;}</style></defs><g id="Layer_2" data-name="Layer 2"><g id="Layer_1-2" data-name="Layer 1"><path class="cls-1" d="M37,21.17l-.34-1.65a8.88,8.88,0,0,0-3.09-5l-.6-.45A6.54,6.54,0,0,0,25.28,3.79a8,8,0,0,0-13.58,0A6.54,6.54,0,0,0,4.06,14a6.85,6.85,0,0,0-.61.45,8.86,8.86,0,0,0-3.08,5L0,21.17a.83.83,0,0,0,.16.68.8.8,0,0,0,.63.3H36.16a.8.8,0,0,0,.63-.3A.83.83,0,0,0,37,21.17ZM28,4.83a4.93,4.93,0,1,1-2.73,9l-.4-.34c-.11-.1-.23-.18-.35-.27a8,8,0,0,0,2-5.27A8.05,8.05,0,0,0,26,5.24,5,5,0,0,1,28,4.83ZM18.49,1.62A6.37,6.37,0,1,1,12.12,8,6.36,6.36,0,0,1,18.49,1.62ZM9,4.83a5,5,0,0,1,2,.41,8,8,0,0,0,1.5,8,3,3,0,0,0-.35.27q-.21.17-.42.36a4.88,4.88,0,0,1-2.7.81A4.93,4.93,0,0,1,9,4.83ZM2,19.85a7.23,7.23,0,0,1,3.36-4.7,6.68,6.68,0,0,0,4.48,1.11,10,10,0,0,0-1.16,3l-.27,1.26H1.8Zm8.06.68.2-.93a8.48,8.48,0,0,1,2.52-4.45,6.73,6.73,0,0,0,.82-.68l.15-.1a8,8,0,0,0,9.57,0l.16.11a6.15,6.15,0,0,0,.8.65,8.52,8.52,0,0,1,2.53,4.47l.2.93Zm18.6,0-.27-1.26a10,10,0,0,0-1.16-3,6.57,6.57,0,0,0,.78,0,6.46,6.46,0,0,0,3.7-1.15A7.23,7.23,0,0,1,35,19.85l.15.68Z"/></g></g></svg>