<svg xmlns="http://www.w3.org/2000/svg" viewBox="0 0 185.3 55.24"><defs><style>.cls-1{opacity:0.5;}.cls-2{fill:#4f4f4f;}.cls-3{fill:#727272;}.cls-4{fill:#535353;}.cls-5{fill:#525252;}.cls-6{fill:#555;}.cls-7{fill:#434343;}.cls-8{fill:#444;}</style></defs><g id="Layer_2" data-name="Layer 2"><g id="Layer_1-2" data-name="Layer 1"><g class="cls-1"><path class="cls-2" d="M0,27.74A27.3,27.3,0,0,1,20.7.92c7.55-1.79,15-1.1,21.8,3.21,1.49.94,1.92,1.78,1.28,3.53q-9.7,26.2-36,35.68C5.9,44,4.93,43.66,4,42A28.14,28.14,0,0,1,0,27.74Z"/><path class="cls-3" d="M6.49,45.42c7.19-2.48,14.24-3.7,21.19-5.33a65.63,65.63,0,0,0,10.19-3c8.79-3.64,14.22-9.63,13.84-19.68a10.14,10.14,0,0,1,.18-1.54c3.19,2.23,4.51,10.54,3,17.83a27.34,27.34,0,0,1-21.94,21C22.65,56.56,13.87,53.53,6.49,45.42Z"/><path class="cls-4" d="M150.09,21.08a12.85,12.85,0,0,0-14.18-6,12.5,12.5,0,0,0-9.73,11.21c-.55,6.84-.17,13.7-.26,20.55,0,1.46.39,2.32,2.1,2.34s2.47-.6,2.43-2.35c-.07-2.88,0-5.77,0-9.18,1.6.85,2.48,1.37,3.41,1.8a12.5,12.5,0,0,0,14.84-2.92A13.43,13.43,0,0,0,150.09,21.08Zm-11,15.29A8.2,8.2,0,0,1,130.6,28c0-4.85,3.65-8.85,8.17-8.91s8.29,3.76,8.31,8.69S143.74,36.33,139.14,36.37Z"/><path class="cls-5" d="M91.44,21.14A12.94,12.94,0,0,0,77,15.06c-5.53,1.32-9.24,6-9.54,12,.48,6,.12,11.95.21,17.91.06,3.93,0,3.93,4,3.31.41-3.42-.3-6.91.43-10.42,7.62,3.89,13.36,3.5,17.64-1A13.6,13.6,0,0,0,91.44,21.14ZM80.24,36.37a8.41,8.41,0,0,1-8.45-8.58c.06-4.76,3.94-8.76,8.46-8.72A8.64,8.64,0,0,1,88.49,28,8.23,8.23,0,0,1,80.24,36.37Z"/><path class="cls-5" d="M122.22,26.06c-1-6.85-6.83-11.91-13.39-11.4-7.07.54-12.06,5.95-12,14.89.12,3.5,2.36,7.64,7.32,9.87s10,1.5,14.34-2c.75-.59,2.08-1.27,1.36-2.45a3.84,3.84,0,0,0-3.22-1.62c-.69,0-1.38.82-2,1.28-4.17,2.91-9.14,2.13-11.89-1.84-1.09-1.56-.9-2.43,1.11-2.69a26.62,26.62,0,0,1,6.85.22,19.78,19.78,0,0,0,9.81-1.22A2.44,2.44,0,0,0,122.22,26.06Zm-5.82-.14a17.6,17.6,0,0,1-4.34.4c-3.17-.05-6.34-1-9.52,0-1.23.37-1.39-.38-1.14-1.41.7-3,4.6-5.84,8.06-5.91,3.08-.06,7.11,2.6,8,5.18C117.75,25.23,117.46,25.66,116.4,25.92Z"/><path class="cls-5" d="M165.5,40.72a14.44,14.44,0,0,1-8.81-2.84c-.78-.6-2.57-1.09-1.29-2.5,1-1.09,2.11-2.75,4.13-1A8.31,8.31,0,0,0,166,36.3c2-.19,4-.65,4.25-2.92.31-2.49-1.73-3-3.65-3.38-2.33-.52-4.74-.78-6.91-1.91-4.83-2.5-5.35-8.15-1-11.46,3.66-2.82,10.9-2.57,14.41.46.71.62,1.27,1.2.41,2s-1.79,2.31-3.4,1.24A8.53,8.53,0,0,0,163.77,19c-1.65.26-3.14,1-3.39,2.76-.27,1.93,1.34,2.72,2.84,3.19,1.79.56,3.65.86,5.48,1.3,4.26,1,6.48,3.37,6.49,6.85s-2.48,6.21-6.64,7.16C167.44,40.47,166.29,40.59,165.5,40.72Z"/><path class="cls-5" d="M184.47,39.46c-3.63,1.28-4.31.89-4.3-2.62,0-6.82.07-13.65.1-20.47,4-.63,3.92-.63,4,3.29C184.35,26.26,184,32.86,184.47,39.46Z"/><path class="cls-6" d="M182.52,13.14c-1.69-.26-3-1.07-3-2.93a2.72,2.72,0,0,1,2.94-2.93A2.61,2.61,0,0,1,185.29,10C185.4,11.85,184.3,12.78,182.52,13.14Z"/><path class="cls-7" d="M184.47,39.46c-1.13-3.77-.35-7.63-.52-11.45a78,78,0,0,1,0-8.09c.15-2.76-1-3.84-3.69-3.55,3.42-1.59,4.36-1.13,4.35,2.26C184.59,25.57,184.52,32.52,184.47,39.46Z"/><path class="cls-8" d="M67.47,27c1.15,5.75.37,11.57.47,17.35,0,2.69.71,4.24,3.7,3.86-3.3,1.69-4.35,1.18-4.34-2.21C67.33,39.7,67.41,33.36,67.47,27Z"/></g></g></g></svg>