<svg xmlns="http://www.w3.org/2000/svg" viewBox="0 0 15.28 26.88"><defs><style>.cls-1{fill:#47abd8;}</style></defs><g id="Layer_2" data-name="Layer 2"><g id="Layer_1-2" data-name="Layer 1"><path class="cls-1" d="M12.64,0h-10A2.65,2.65,0,0,0,0,2.64v21.6a2.64,2.64,0,0,0,2.64,2.64h10a2.64,2.64,0,0,0,2.64-2.64V2.64A2.65,2.65,0,0,0,12.64,0Zm-10,1.18h10A1.46,1.46,0,0,1,14.1,2.64V3.83H1.18V2.64A1.46,1.46,0,0,1,2.64,1.18Zm11.46,18H1.18V5H14.1Zm-1.46,6.53h-10a1.46,1.46,0,0,1-1.46-1.47V20.35H14.1v3.89A1.46,1.46,0,0,1,12.64,25.71Z"/><path class="cls-1" d="M7.64,21.8a1.29,1.29,0,1,0,0,2.57,1.29,1.29,0,0,0,0-2.57Z"/></g></g></svg>