<svg xmlns="http://www.w3.org/2000/svg" viewBox="0 0 26.76 26.88"><defs><style>.cls-1{fill:#47abd8;}</style></defs><g id="Layer_2" data-name="Layer 2"><g id="Layer_1-2" data-name="Layer 1"><path class="cls-1" d="M26.28,23.16,21.6,18.47a1.63,1.63,0,0,0-2.3,0L17.8,17a10.22,10.22,0,1,0-.83.83l1.5,1.5-.11.11a1.63,1.63,0,0,0-.48,1.16,1.64,1.64,0,0,0,.48,1.16L23,26.4a1.64,1.64,0,0,0,2.32,0l.92-.92A1.64,1.64,0,0,0,26.28,23.16ZM10.19,19.21a9,9,0,1,1,9-9A9,9,0,0,1,10.19,19.21Zm15.26,5.44-.92.92a.47.47,0,0,1-.66,0l-4.68-4.69a.43.43,0,0,1-.14-.32.45.45,0,0,1,.14-.33l.53-.53h0l.39-.39a.45.45,0,0,1,.33-.14.47.47,0,0,1,.33.14L25.45,24A.47.47,0,0,1,25.45,24.65Z"/></g></g></svg>