<svg xmlns="http://www.w3.org/2000/svg" viewBox="0 0 36.97 36.97"><defs><style>.cls-1{fill:#47abd8;}</style></defs><g id="Layer_2" data-name="Layer 2"><g id="Layer_1-2" data-name="Layer 1"><path class="cls-1" d="M18.49,0A18.49,18.49,0,1,0,37,18.49,18.51,18.51,0,0,0,18.49,0ZM33.76,25.65h-6a32.38,32.38,0,0,0,.76-6.36h6.82A16.93,16.93,0,0,1,33.76,25.65ZM1.64,19.29H8.45a32.38,32.38,0,0,0,.76,6.36h-6A16.56,16.56,0,0,1,1.64,19.29Zm1.58-8h6a32.38,32.38,0,0,0-.76,6.36H1.64A16.56,16.56,0,0,1,3.22,11.32ZM19.29,9.7v-8c1.86.36,3.61,2,5,4.66A20.09,20.09,0,0,1,25.66,9.7Zm6.82,1.62a31.34,31.34,0,0,1,.8,6.36H19.29V11.32ZM17.68,1.7v8H11.31a20.09,20.09,0,0,1,1.36-3.34C14.07,3.69,15.82,2.06,17.68,1.7Zm0,9.62v6.36H10.06a31.34,31.34,0,0,1,.8-6.36Zm-7.62,8h7.62v6.36H10.86A31.34,31.34,0,0,1,10.06,19.29Zm7.62,8v8c-1.86-.37-3.61-2-5-4.67a19.75,19.75,0,0,1-1.36-3.34Zm1.61,8v-8h6.37a19.75,19.75,0,0,1-1.36,3.34C22.9,33.29,21.15,34.91,19.29,35.28Zm0-9.63V19.29h7.62a31.34,31.34,0,0,1-.8,6.36Zm9.23-8a32.38,32.38,0,0,0-.76-6.36h6a16.93,16.93,0,0,1,1.58,6.36Zm4.36-8H27.35a22.06,22.06,0,0,0-1.62-4.09,13.92,13.92,0,0,0-2.27-3.25A17,17,0,0,1,32.88,9.7ZM13.51,2.36a13.92,13.92,0,0,0-2.27,3.25A22.06,22.06,0,0,0,9.62,9.7H4.09A17,17,0,0,1,13.51,2.36ZM4.09,27.27H9.62a21.79,21.79,0,0,0,1.62,4.09,13.92,13.92,0,0,0,2.27,3.25A17,17,0,0,1,4.09,27.27Zm19.37,7.34a13.92,13.92,0,0,0,2.27-3.25,21.79,21.79,0,0,0,1.62-4.09h5.53A17,17,0,0,1,23.46,34.61Z"/></g></g></svg>