<svg xmlns="http://www.w3.org/2000/svg" viewBox="0 0 209.69 64.96"><defs><style>.cls-1{opacity:0.5;}.cls-2{fill:#575757;}.cls-3{fill:#eaeaea;}.cls-4{fill:#d6d6d6;}.cls-5{fill:#464646;}.cls-6{fill:#474747;}.cls-7{fill:#acacac;}.cls-8{fill:#656565;}.cls-9{fill:#434343;}.cls-10{fill:#494949;}.cls-11{fill:#3b3b3b;}.cls-12{fill:#3a3a3a;}.cls-13{fill:#343434;}.cls-14{fill:#3d3d3d;}</style></defs><g id="Layer_2" data-name="Layer 2"><g id="Layer_1-2" data-name="Layer 1"><g class="cls-1"><path class="cls-2" d="M56.9,63.39A2,2,0,0,1,54.74,65q-17.52,0-35,0a1.57,1.57,0,0,1-1.42-.55c.58-1.38,1.84-1.24,3-1.27,3.12-.08,6.24,0,9.36,0,2.57-.06,2.87-.6,1.74-2.83-1.24-2.46-2.81-4.73-4.05-7.18-.56-1.12-1.61-2.26-.46-3.62l20.34.06c2.16,1.16,3.14,3.25,4.24,5.25C54,57.6,56.09,60.17,56.9,63.39Z"/><path class="cls-2" d="M17,31.46C20.65,37.19,24.1,43,27.28,49a2,2,0,0,1-2.09,1.68c-5,.08-10.11.73-15.11-.51C6.58,44.35,2.8,38.69,0,32.49A3.14,3.14,0,0,1,2.58,30.9C7.41,30.66,12.27,30,17,31.46Z"/><path class="cls-3" d="M18.22.58A5.73,5.73,0,0,1,21.58,0c10.59,0,21.18,0,31.76,0,2.09,0,3.5.55,4.54,2.46,2.57,4.73,5.3,9.38,8,14.06a3.39,3.39,0,0,1-2,.7q-6.73.21-13.47,0c-1,0-1.82-.58-2.78-.69-2.4-.94-4.9-.47-7.35-.51-4.34-.08-8.67,0-13,0-.11-2,1.49-1.7,2.59-1.76,3.38-.18,6.76,0,10.13-.08s3.93-.84,2.28-3.72C41.19,8.5,40.06,6.6,39,4.69a5.28,5.28,0,0,0-5.05-2.82c-3.73,0-7.46,0-11.19,0A6.53,6.53,0,0,1,18.22.58Z"/><path class="cls-4" d="M47.64,16.53c1.85-1,3.85-.57,5.77-.51,4.14.14,8.33-.6,12.44.5q4.05,7,8.11,13.91c.58,1,1.32,1.94.52,3.15-4.77,1.32-9.64.66-14.47.62a5.89,5.89,0,0,1-2.65-1.12Z"/><path class="cls-4" d="M18.22.58C23.9.58,29.59.64,35.27.52a4.22,4.22,0,0,1,4.39,2.62c1.57,3.06,3.51,5.93,5.19,8.93,1.87,3.33,1.81,3.39-1.92,3.4H30.67a6.43,6.43,0,0,0-3.38.51c-5,0-10.06.05-15.08,0-.79,0-2.1.57-2.13-1.08,3.55-1.23,7.23-.61,10.86-.74,3-.11,3.3-.68,1.82-3.33-1-1.7-1.86-3.44-3-5A9.14,9.14,0,0,1,18.19,1.1C18.2.93,18.2.76,18.22.58Z"/><path class="cls-5" d="M97.47,46.34a16.27,16.27,0,0,1-8.94-2.14c-1.12-.63-1.5-1.2-.79-2.5,1.85-3.39,1.78-3.42,5.37-1.77a7.53,7.53,0,0,0,4.13.89,2.33,2.33,0,0,0,2.26-1.57,2.24,2.24,0,0,0-1-2.76c-1.38-.81-2.82-1.51-4.26-2.21-3.92-1.91-5.43-4.43-4.75-8,.62-3.16,3.62-5.64,7.31-6a13.3,13.3,0,0,1,5.28.63c3.92,1.18,4.2,2.26,1.64,5.54-.66.85-1.14.5-1.78.2a7.8,7.8,0,0,0-4.38-.95c-1,.13-2,.48-2.18,1.64s.55,1.77,1.49,2.21c1.62.75,3.28,1.41,4.85,2.25,3.85,2,5.11,4.39,4.49,8.15-.54,3.31-3.15,5.63-7.06,6.24A13.1,13.1,0,0,1,97.47,46.34Z"/><path class="cls-5" d="M10.08,50.16c1.28-.88,2.75-.56,4.15-.64,4.35-.26,8.74.58,13.05-.53l.56.47c2.41,4.23,4.75,8.51,7.26,12.68,1.1,1.83.63,2.29-1.31,2.28-5.17,0-10.34,0-15.51,0Z"/><path class="cls-6" d="M208.73,31.39c-1.59,1.63-3.08,3.36-4.79,4.86-1.43,1.26-1.67,2.1,0,3.44a67.51,67.51,0,0,1,5,5c-1.93,1.58-4.12.7-6.22.64l-5.16-4.48a2.27,2.27,0,0,0-.41,2.16c.38,2.41-.65,3-2.95,2.94s-3-.54-2.91-2.82c.14-7,.17-14,0-21-.07-2.63,1.34-2.45,3.14-2.53,2-.09,2.84.4,2.74,2.6-.18,4.15-.05,8.31-.05,12.74,2.55-1,3.57-3.62,5.86-4.55,1.21.47,2.47.12,3.7.23C207.42,30.69,208.32,30.38,208.73,31.39Z"/><path class="cls-5" d="M153.4,31.4a10.88,10.88,0,0,1,5.9-1.53,4.72,4.72,0,0,1,4.95,3.27,24.67,24.67,0,0,1,.1,12.57c-4.52-.5-4.5-.5-4.52-5.33a30.08,30.08,0,0,0,0-3.34c-.14,2.5.32,5.57-.24,8.62-.89-2.56-.29-5.21-.39-7.81-.07-2-.45-3.63-2.81-3.65s-2.85,1.59-2.93,3.58c-.1,2.62.39,5.27-.31,7.86-.6-1.36-.08-2.79-.27-4,0,.25,0,.72,0,1.18,0,2.43-1.84,3.58-4.12,2.64-.78-.32-.69-.94-.69-1.54,0-7.44,0-14.88,0-22.31,0-1.86,1.08-1.72,2.25-1.65s2.81-.56,2.88,1.67C153.25,24.9,152.82,28.16,153.4,31.4Z"/><path class="cls-5" d="M174.54,30.42c1.12,2.52.25,5.17.52,7.75.13,1.33.13,2.69,1.66,3.31a2.87,2.87,0,0,0,4.19-2.57c.19-2,0-4,.13-6.08,0-.82-.41-1.78.5-2.44a2.13,2.13,0,0,0,.74.23c4.06.2,4.06.21,4.07,4.13,0,2.26,0,4.51-.07,6.77a5.81,5.81,0,0,1-.31,1.26c-1.47,3-5.2,4.22-10.6,3.43-3.58-.51-5.17-2-5.69-5.17a68.46,68.46,0,0,0,0-7.58c-.08-2.08.45-3.19,2.77-2.85A3.44,3.44,0,0,0,174.54,30.42Z"/><path class="cls-6" d="M130.64,38.11c.12-5.17,2.56-7.55,7.75-7.87,1.2-.07,2.39-.66,3.6-.09.87.4,2.5.27,1.93,1.87-.45,1.23-.51,3.17-2.92,2.44a3.41,3.41,0,0,0-4.12,1.7A3.65,3.65,0,0,0,141,41.55c2.41-.64,2.44,1.39,2.88,2.57.57,1.52-1,1.59-1.95,1.86C136.06,47.68,130.51,43.8,130.64,38.11Z"/><path class="cls-7" d="M57.36,33.08l14.58,0a4.32,4.32,0,0,1,2.54.55c-2.4,4.15-4.83,8.27-7.2,12.44-.92,1.61-1.53,1.62-2.46,0C62.4,41.64,59.85,37.38,57.36,33.08Z"/><path class="cls-8" d="M17,31.46c-3.81,1-7.71.27-11.56.5-1.84.1-3.71-.25-5.48.53,2.53-5.13,5.66-9.92,8.83-15.41Z"/><path class="cls-7" d="M18.19,1.1C21.45,5,23.4,9.65,26.11,13.86c.47.74.21,1.53-.74,1.51-5.1-.09-10.23.78-15.29-.47Z"/><path class="cls-8" d="M56.9,63.39c-.49-.35-1.18-.58-1.46-1.06C53,58.09,50.1,54.07,48.18,49.52c4.89,0,9.78-.07,14.68-.14,1.56,0,2.23.37,1.28,1.95C61.71,55.35,59.31,59.37,56.9,63.39Z"/><path class="cls-5" d="M121.56,45.74c-.67-.23-.58-.82-.58-1.32q0-12.09.09-24.17c5.22-.85,5.29-.79,5.29,4.29q0,8.76,0,17.51c0,3.39,0,3.39-3.5,3.48A2.77,2.77,0,0,0,121.56,45.74Z"/><path class="cls-9" d="M153.4,31.4c-1.12-1.19-.74-2.66-.79-4-.05-1.67,0-3.35,0-5,0-1.43-.78-2.06-2.2-2s-2,.64-2,1.93q0,10.47,0,20.94c0,1.41.73,2.08,2.16,2.07s2.07-.8,2.07-2.17a18.75,18.75,0,0,1,.56-5.55v8.13c-5.41.68-5.41.68-5.41-4.63,0-6.35.11-12.71,0-19-.06-2.27,1-2.42,2.71-2.31,1.53.1,3.28-.46,3.11,2.22C153.3,25,153.42,28.22,153.4,31.4Z"/><path class="cls-10" d="M113,20.42a3.22,3.22,0,0,1,3.32,3.52c-.16,2-1.47,2.95-3.37,3a3.17,3.17,0,0,1-3.13-3.49C109.94,21.41,111.27,20.61,113,20.42Z"/><path class="cls-11" d="M121.56,45.74a10.89,10.89,0,0,1,2.06-.46c1.6-.05,2.2-.87,2.2-2.37,0-6.72,0-13.45,0-20.18,0-1.84-.86-2.57-2.62-2.48-.71,0-1.43,0-2.14,0,1.5-1.13,3.21-.5,4.82-.47,1,0,.78,1,.78,1.71,0,7.53,0,15.06,0,22.58,0,1.43-.61,1.88-1.94,1.78C123.7,45.76,122.63,45.77,121.56,45.74Z"/><path class="cls-12" d="M186.28,41.52c-.8-1.67-.44-3.46-.46-5.19,0-4.65,0-4.65-4.28-5.94,5.15-.38,5.19-.37,5.13,4.54C186.65,37.13,187,39.36,186.28,41.52Z"/><path class="cls-12" d="M174.54,30.42a5.17,5.17,0,0,1-1.52.42c-2.33-.11-2.75,1.18-2.78,3.17,0,2.34.57,4.76-.56,7-.67-3.12-.2-6.27-.3-9.4,0-1,.54-1.39,1.48-1.36Z"/><path class="cls-13" d="M110.83,45.74c-1-.59-.53-1.58-.55-2.37-.06-3.34.17-6.71-.09-10-.21-2.69.84-3.5,3.28-3,.76.14,1.81-.62,2.27.62-.22.18-.45.35-.68.52-2.25,1-2.9,2.76-2.94,5.1-.06,2.86.63,5.81-.72,8.57A4.84,4.84,0,0,1,110.83,45.74Z"/><path class="cls-11" d="M110.83,45.74c0-.16,0-.33,0-.49,2.52-1.74,3-4.2,3-7.12,0-2.42-1-5.13,1.24-7.23l.63,0c0,4.2,0,8.4.17,12.6.07,1.87-.63,2.55-2.44,2.33C112.6,45.74,111.71,45.77,110.83,45.74Z"/><path class="cls-11" d="M159.58,45.66V37.53l.52,0c0,1.46.09,2.93,0,4.39-.16,2.21.46,3.6,3,3.44a3.72,3.72,0,0,1,1.25.37A15.89,15.89,0,0,1,159.58,45.66Z"/><path class="cls-11" d="M208.73,31.39c-1.82-.94-4,0-5.77-1,1.84,0,3.68-.13,5.51-.11C209.73,30.3,209.64,30.79,208.73,31.39Z"/><path class="cls-14" d="M202.7,45.32c2.08-.19,4.22.27,6.22-.64.38.32,1.4.93.2,1C207,45.87,204.77,46.37,202.7,45.32Z"/><path class="cls-5" d="M115.11,30.9c0,3.36,0,6.72,0,10.08,0,4.27,0,4.27-4.28,4.27,0-3.36,0-6.72,0-10.08C110.84,30.9,110.84,30.9,115.11,30.9Z"/></g></g></g></svg>