<svg xmlns="http://www.w3.org/2000/svg" viewBox="0 0 36.97 24.75"><defs><style>.cls-1{fill:#47abd8;}</style></defs><g id="Layer_2" data-name="Layer 2"><g id="Layer_1-2" data-name="Layer 1"><path class="cls-1" d="M34,0H2.93A2.93,2.93,0,0,0,0,2.93V21.82a2.93,2.93,0,0,0,2.93,2.93H34A2.93,2.93,0,0,0,37,21.82V2.93A2.93,2.93,0,0,0,34,0ZM2.93,1.62H34a1.31,1.31,0,0,1,1.31,1.31V6.1H1.62V2.93A1.31,1.31,0,0,1,2.93,1.62Zm32.42,9.09H1.62v-3H35.35ZM34,23.14H2.93a1.32,1.32,0,0,1-1.31-1.32V12.33H35.35v9.49A1.31,1.31,0,0,1,34,23.14Z"/></g></g></svg>