<svg xmlns="http://www.w3.org/2000/svg" viewBox="0 0 71.31 85.19"><defs><style>.cls-1{opacity:0.5;}.cls-2{fill:#8e8e8e;}.cls-3{fill:#fff;}.cls-4{fill:#dadada;}.cls-5{fill:#dbdbdb;}.cls-6{fill:#d8d8d8;}.cls-7{fill:#4f4f4f;}.cls-8{fill:#8f8f8f;}</style></defs><g id="Layer_2" data-name="Layer 2"><g id="Layer_1-2" data-name="Layer 1"><g class="cls-1"><path class="cls-2" d="M0,51.21V7.84a.74.74,0,0,1,.38-.36A57.64,57.64,0,0,1,10.8,3.28a77.65,77.65,0,0,1,9.66-2.21Q23.67.54,26.93.25c1.12-.1,2.23-.13,3.35-.16Q31.56,0,32.83,0h5.7c1.63,0,3.27,0,4.9.13C45.22.28,47,.5,48.79.75a84,84,0,0,1,9,1.76,64.17,64.17,0,0,1,9.87,3.37c1.06.46,2.1,1,3.12,1.5.22.11.5.2.51.53V50.85a28.94,28.94,0,0,1-.18,3.95,26.73,26.73,0,0,1-2,7.12,25.29,25.29,0,0,1-3.93,6.26,26.23,26.23,0,0,1-5.74,5c-1.91,1.22-3.88,2.34-5.87,3.43-2.32,1.26-4.68,2.45-7.05,3.61q-4.12,2-8.3,3.9l-2.17,1a.87.87,0,0,1-.74,0c-2.7-1.21-5.39-2.44-8.06-3.71-2.16-1-4.32-2-6.45-3.15-2.92-1.5-5.82-3-8.62-4.77a25.24,25.24,0,0,1-5.21-4.28A26.73,26.73,0,0,1,.17,54.52a20.87,20.87,0,0,1-.11-2.24A7.59,7.59,0,0,0,0,51.21Z"/><path class="cls-3" d="M32.77.05C31.2.1,29.63.18,28.06.31c-2,.16-3.92.37-5.87.65a84.48,84.48,0,0,0-9.06,1.83A60.18,60.18,0,0,0,.93,7.37L0,7.84V0H32.77S32.82,0,32.77.05Z"/><path class="cls-3" d="M71.25,7.84a5.07,5.07,0,0,0-.82-.46A59.5,59.5,0,0,0,58.69,2.92,82.83,82.83,0,0,0,48.11.82C45.77.51,43.42.28,41.05.16L38.6.05c-.05,0-.05,0,0,0H71.31V7.84S71.27,7.88,71.25,7.84Z"/><path class="cls-4" d="M71.25,7.84h.06V51h0c0-.1,0-.2,0-.29V7.84Z"/><path class="cls-5" d="M38.59,0V.05H32.77V0Z"/><path class="cls-6" d="M.11,52.33,0,51.92v-.71A3.53,3.53,0,0,1,.11,52.33Z"/><path class="cls-7" d="M68.4,30.6V50.05a28,28,0,0,1-1.07,7.89,22.35,22.35,0,0,1-5.92,9.9,23.61,23.61,0,0,1-4,3.09c-2.29,1.44-4.66,2.73-7.06,4-4.7,2.42-9.49,4.65-14.32,6.79a.74.74,0,0,1-.65,0c-5.05-2.23-10.06-4.55-15-7.09-2.2-1.15-4.38-2.35-6.48-3.68a23.64,23.64,0,0,1-6.25-5.63A22.51,22.51,0,0,1,3.5,56a30.48,30.48,0,0,1-.57-6.11q0-11.83,0-23.67a.94.94,0,0,1,.34-.76A63.41,63.41,0,0,1,22.63,13.31,72.1,72.1,0,0,1,35.72,9.5q3.44-.66,6.9-1c1.82-.21,3.64-.35,5.47-.45,2.7-.16,5.4-.2,8.1-.16,2.23,0,4.47.13,6.7.27,1.65.11,3.3.23,4.94.38.66.06.57,0,.57.63Z"/><path class="cls-8" d="M28.26,50V30c0-.55-.08-.46.44-.76a14.67,14.67,0,0,1,5.18-1.72,19.51,19.51,0,0,1,3.5-.17,10.51,10.51,0,0,1,6,2,10.76,10.76,0,0,1,3,3.6A15.73,15.73,0,0,1,48,37.72a26.26,26.26,0,0,1-.28,10.41,15.14,15.14,0,0,1-2.18,5.11A9.62,9.62,0,0,1,41,56.91a10,10,0,0,1-3.87.68,10.53,10.53,0,0,1-2.5-.28c-.19-.05-.23,0-.25.17s0,.24,0,.36v12c0,.13,0,.26,0,.39a.18.18,0,0,1-.19.19H28.71c-.45,0-.45,0-.45-.46Z"/><path class="cls-8" d="M24.82,41.43V54.59c0,.51.07.44-.4.73a14.31,14.31,0,0,1-4.88,1.88,19.88,19.88,0,0,1-5.22.35,10.53,10.53,0,0,1-2.62-.48,7.44,7.44,0,0,1-4.87-4.61,12.32,12.32,0,0,1-.77-3.65c0-.65-.06-1.3,0-2V28.29c0-.6,0-.55.54-.55h5.29c.51,0,.5,0,.5.5V47.6a8.74,8.74,0,0,0,.18,2,4.87,4.87,0,0,0,.28.84,2.72,2.72,0,0,0,2.38,1.72A6.24,6.24,0,0,0,17.33,52a3.94,3.94,0,0,0,.88-.35.46.46,0,0,0,.28-.47,2.54,2.54,0,0,1,0-.39V28.35c0-.13,0-.26,0-.39a.2.2,0,0,1,.22-.22h5.67c.44,0,.44,0,.44.45Z"/><path class="cls-8" d="M50,49.91a.55.55,0,0,1,.28.18,10.21,10.21,0,0,0,4.54,2.15,5.55,5.55,0,0,0,2.5-.07A3.09,3.09,0,0,0,59.71,49a3.79,3.79,0,0,0-.79-2.27,6.42,6.42,0,0,0-1.29-1.26A21,21,0,0,0,55.45,44a19.38,19.38,0,0,1-2.76-1.91,9.6,9.6,0,0,1-2.25-2.66,8.84,8.84,0,0,1-1-3.66A7.42,7.42,0,0,1,50.72,31a8.43,8.43,0,0,1,3.85-3.05,10.53,10.53,0,0,1,4.51-.74,10.29,10.29,0,0,1,4.54,1.22,7,7,0,0,1,.93.59.48.48,0,0,1,.23.44v4.81a.39.39,0,0,1,0,.25c-.12,0-.18-.11-.25-.18a9.48,9.48,0,0,0-3.15-1.86,6.59,6.59,0,0,0-2.24-.38,4.33,4.33,0,0,0-1.81.42A3,3,0,0,0,56,36.83a4.6,4.6,0,0,0,.91,1A13.93,13.93,0,0,0,58.56,39c.82.51,1.65,1,2.45,1.52a13.86,13.86,0,0,1,3,2.56,7.84,7.84,0,0,1,1.9,4.74,11.22,11.22,0,0,1-.23,3.42,7.94,7.94,0,0,1-6,6A11.22,11.22,0,0,1,53.16,57a17.76,17.76,0,0,1-2.95-1.25A.42.42,0,0,1,50,55.3V50.16A.39.39,0,0,1,50,49.91Z"/><path class="cls-7" d="M34.22,42.24v-9.3c0-.27,0-.26.26-.35a7.49,7.49,0,0,1,1.68-.47,4,4,0,0,1,4,1.77,7.21,7.21,0,0,1,.93,2.28,18.72,18.72,0,0,1,.47,3.25c.08,1.24.09,2.48.06,3.71a20,20,0,0,1-.6,4.62,8.8,8.8,0,0,1-.7,1.85,5.84,5.84,0,0,1-.83,1.2,4.12,4.12,0,0,1-2.82,1.34A5.54,5.54,0,0,1,34.61,52c-.38-.12-.39-.13-.39-.54Z"/></g></g></g></svg>